<svg width="209" height="33" viewBox="0 0 209 33" fill="none" xmlns="http://www.w3.org/2000/svg">
<path d="M154.992 19.5079C154.992 11.0303 159.994 6.01571 168.366 6.01571C176.736 6.01571 181.686 11.0303 181.686 19.5079C181.686 27.9843 176.736 33 168.366 33C159.994 33 154.992 27.9843 154.992 19.5079ZM174.847 19.5079C174.847 14.4412 172.449 11.3924 168.366 11.3924C164.281 11.3924 161.883 14.4412 161.883 19.5079C161.883 24.5745 164.281 27.5712 168.366 27.5712C172.449 27.5712 174.847 24.5745 174.847 19.5079Z" fill="white"/>
<path d="M184.797 24.0573H191.074C191.074 26.9522 193.066 28.6577 196.433 28.6577C199.7 28.6577 201.588 27.4173 201.588 25.2467C201.588 22.5057 198.577 21.9897 195.208 21.4215C190.768 20.6973 185.46 19.819 185.46 13.8742C185.46 8.96376 189.543 6.01682 196.433 6.01682C203.274 6.01682 207.357 9.16975 207.357 14.5464H201.078C201.078 11.8066 199.394 10.2551 196.433 10.2551C193.627 10.2551 191.942 11.3924 191.942 13.305C191.942 15.6306 194.75 16.0969 198.016 16.665C202.559 17.4402 208.071 18.3716 208.071 24.4704C208.071 29.795 203.733 33 196.433 33C189.085 33 184.797 29.692 184.797 24.0573Z" fill="white"/>
<path d="M83.1766 6.01727C78.7187 6.01727 75.6125 10.7372 75.0077 15.4196L74.9229 13.1017C74.2653 8.52344 71.2515 6.01727 66.537 6.01727C61.9889 6.01727 58.779 10.7372 58.1446 15.4196L58.1655 13.1017V6.53445H51.4297V32.4844H58.1655V18.165C58.1655 13.9267 60.157 11.394 63.5761 11.394C66.5877 11.394 68.3237 13.3575 68.3237 16.7175V32.4844H75.0606V18.165C75.0606 13.9267 77.051 11.394 80.4195 11.394C83.431 11.394 85.2188 13.3575 85.2188 16.7175V32.4844H91.9557V16.4074C91.9557 9.84242 88.6886 6.01727 83.1766 6.01727Z" fill="white"/>
<path d="M141.51 6.01727C136.943 6.01727 133.736 10.7472 133.079 15.4196L133.088 13.1017V6.53445H126.352V32.4844H133.088V18.4241C133.088 14.0297 135.18 11.394 138.752 11.394C141.918 11.394 143.756 13.4616 143.756 16.9756V32.4844H150.492V16.6655C150.492 9.94652 147.175 6.01727 141.51 6.01727Z" fill="white"/>
<path d="M40.0783 23.6342C39.3062 26.2368 37.1769 27.8304 34.1665 27.8304C30.8245 27.8304 28.6567 24.7971 28.1379 20.5965H46.7227V19.5067C46.7227 18.8356 46.6907 18.1889 46.6324 17.5632L46.6291 17.4867H46.6258C45.9296 10.2008 41.3825 6.01571 34.1665 6.01571C26.2036 6.01571 21.5078 10.9782 21.5078 19.5067C21.5078 27.9854 26.2036 33 34.1665 33C40.9529 33 45.5914 29.5381 46.6533 23.6342H40.0783ZM34.1665 11.1333C37.4732 11.1333 39.6443 13.3006 40.1103 17.4867H28.1235C28.6379 13.3006 30.809 11.1333 34.1665 11.1333Z" fill="white"/>
<path d="M115.016 23.6342C114.244 26.2368 112.114 27.8304 109.103 27.8304C105.763 27.8304 103.594 24.7971 103.075 20.5965H121.66V19.5067C121.66 18.8356 121.627 18.19 121.57 17.5632L121.567 17.4867H121.563C120.866 10.2008 116.321 6.01571 109.103 6.01571C101.141 6.01571 96.4453 10.9782 96.4453 19.5067C96.4453 27.9854 101.141 33 109.103 33C115.89 33 120.529 29.5381 121.591 23.6342H115.016ZM109.103 11.1333C112.411 11.1333 114.582 13.3006 115.047 17.4867H103.061C103.575 13.3006 105.747 11.1333 109.103 11.1333Z" fill="white"/>
<path d="M18.9406 11.2374V6.53289H10.9777V0H4.24085V6.53289H0V11.2374H4.24085V24.6254C4.24085 29.8991 7.45729 33 12.9175 33C14.8573 33 16.9502 32.5338 18.4813 31.8106V26.7451C17.5626 27.2612 16.2871 27.5724 15.0622 27.5724C12.5089 27.5724 10.9777 26.1759 10.9777 23.7461V11.2374H18.9406Z" fill="white"/>
</svg>
