<svg width="40" height="40" viewBox="0 0 40 40" fill="none" xmlns="http://www.w3.org/2000/svg">
<circle cx="20" cy="20" r="20" fill="white"/>
<g clip-path="url(#clip0_20154_227862)">
<rect width="24" height="24" transform="translate(8 8)" fill="white"/>
<path d="M9.2887 31.0113H14.226V16.1653H9.2887V31.0113Z" fill="#293276"/>
<path d="M11.7961 9.0091C11.441 8.97919 11.0835 9.0232 10.7463 9.13833C10.409 9.25346 10.0992 9.43722 9.83654 9.67803C9.57384 9.91884 9.36388 10.2115 9.21991 10.5375C9.07594 10.8635 9.00108 11.2158 9.00005 11.5721C8.99788 11.9236 9.0683 12.2717 9.2069 12.5947C9.34549 12.9177 9.54928 13.2086 9.8055 13.4492C10.0617 13.6898 10.3649 13.8749 10.6959 13.9929C11.027 14.1109 11.3789 14.1593 11.7295 14.1351H11.7628C12.1167 14.1661 12.4731 14.1235 12.8097 14.0099C13.1463 13.8963 13.4557 13.7143 13.7184 13.4752C13.9811 13.2361 14.1914 12.9451 14.3361 12.6207C14.4808 12.2962 14.5566 11.9454 14.5589 11.5901C14.5612 11.2349 14.4899 10.8831 14.3495 10.5568C14.2091 10.2305 14.0025 9.93685 13.743 9.69435C13.4834 9.45186 13.1764 9.26577 12.8413 9.14783C12.5062 9.02989 12.1503 8.98265 11.7961 9.0091V9.0091Z" fill="#293276"/>
<path d="M26.3419 15.8219C25.4471 15.7856 24.5594 15.9948 23.7751 16.4271C22.9908 16.8593 22.3398 17.4981 21.8927 18.274V18.3183H21.8594L21.8927 18.274V16.1659H16.9553C17.0218 17.5639 16.9553 31.0113 16.9553 31.0113H21.8927V22.7232C21.873 22.3169 21.9294 21.9104 22.0591 21.5249C22.2425 20.9991 22.5841 20.543 23.037 20.2192C23.49 19.8954 24.0321 19.7197 24.5888 19.7164C26.3752 19.7164 27.0853 21.0808 27.0853 23.0671V31.0116H32.0226V22.5013C32.0337 17.9411 29.5928 15.8219 26.3419 15.8219Z" fill="#293276"/>
</g>
<defs>
<clipPath id="clip0_20154_227862">
<rect width="24" height="24" fill="white" transform="translate(8 8)"/>
</clipPath>
</defs>
</svg>
