<svg width="187" height="107" viewBox="0 0 187 107" fill="none" xmlns="http://www.w3.org/2000/svg">
<path d="M6.48 33.3H3.015C3.24 36.36 3.375 39.42 3.375 41.625V63H6.165L6.48 58.77H6.93C8.415 61.785 11.25 63.45 14.625 63.45C17.37 63.45 19.62 62.415 21.375 60.39C23.13 58.32 23.985 55.62 23.985 52.335C23.985 49.05 23.13 46.35 21.375 44.28C19.62 42.21 17.37 41.175 14.58 41.175C11.295 41.175 8.415 42.84 6.93 45.855H6.48V33.3ZM13.905 60.75C11.7 60.75 9.9 59.94 8.46 58.365C7.065 56.79 6.345 54.765 6.345 52.335C6.345 49.86 7.065 47.835 8.505 46.26C9.945 44.685 11.745 43.875 13.905 43.875C18.09 43.875 20.79 47.115 20.79 52.29C20.79 57.465 18.09 60.75 13.905 60.75ZM39.5936 59.805L39.9986 63H43.3736C42.8336 61.2 42.5636 58.905 42.5636 56.925V47.7C42.5636 43.74 39.4586 41.175 34.8236 41.175C32.0786 41.175 29.2886 42.075 27.2636 43.56V47.07C29.4236 45.045 31.9886 43.785 34.6886 43.785C37.6136 43.785 39.4136 45.27 39.4136 47.475C39.4136 49.68 37.6586 50.625 33.5186 51.39C28.6136 52.335 25.8686 54.27 25.8686 57.69C25.8686 61.11 28.6586 63.45 32.4836 63.45C35.2286 63.45 37.5236 62.19 39.1436 59.805H39.5936ZM39.4136 54.045C39.4136 58.185 36.6686 60.93 33.0686 60.93C30.5936 60.93 29.0636 59.67 29.0636 57.645C29.0636 55.71 30.4586 54.54 34.0136 53.775C36.9386 53.1 38.3786 52.47 39.4136 51.39V54.045ZM47.6324 41.625C47.8124 43.65 47.9924 45.72 47.9924 47.7V63H51.0974V51.3C51.0974 49.14 51.7274 47.385 52.9424 45.99C54.1574 44.595 55.7324 43.875 57.5774 43.875C60.8174 43.875 63.0224 46.215 63.0224 49.77V63H66.4874C66.2624 61.2 66.1274 59.13 66.1274 56.925V48.825C66.1274 46.575 65.4074 44.73 63.9224 43.335C62.4374 41.895 60.5924 41.175 58.3874 41.175C55.2824 41.175 52.7174 42.795 51.4124 45.36H50.9624V41.625H47.6324ZM89.8948 63L78.3298 51.615L88.1848 41.625H84.3598L74.9998 51.255H74.5498V33.3H71.0848C71.3098 36.405 71.4448 39.06 71.4448 41.625V63H74.9548C74.6398 61.2 74.5498 59.22 74.5498 56.925V52.02H74.9998L85.9798 63H89.8948ZM93.6146 32.895C92.3996 32.895 91.4546 33.84 91.4546 35.055C91.4546 36.18 92.3996 37.125 93.6146 37.125C94.8296 37.125 95.7746 36.18 95.7746 35.055C95.7746 33.84 94.8746 32.895 93.6146 32.895ZM91.7246 41.625C91.9496 43.425 92.0846 45.855 92.0846 47.7V63H95.5496C95.3246 61.2 95.1896 59.22 95.1896 56.925V41.625H91.7246ZM100.276 41.625C100.456 43.65 100.636 45.72 100.636 47.7V63H103.741V51.3C103.741 49.14 104.371 47.385 105.586 45.99C106.801 44.595 108.376 43.875 110.221 43.875C113.461 43.875 115.666 46.215 115.666 49.77V63H119.131C118.906 61.2 118.771 59.13 118.771 56.925V48.825C118.771 46.575 118.051 44.73 116.566 43.335C115.081 41.895 113.236 41.175 111.031 41.175C107.926 41.175 105.361 42.795 104.056 45.36H103.606V41.625H100.276ZM140.109 60.525C140.109 64.665 137.184 67.545 132.864 67.545C130.524 67.545 128.139 66.78 125.664 65.295V68.625C127.959 69.66 130.569 70.2 133.044 70.2C136.104 70.2 138.534 69.345 140.379 67.68C142.224 66.015 143.169 63.81 143.169 61.11V41.625H139.704L140.109 45.855H139.659C138.174 42.84 135.339 41.175 131.919 41.175C129.174 41.175 126.924 42.165 125.169 44.1C123.459 46.035 122.604 48.555 122.604 51.66C122.604 54.81 123.459 57.375 125.169 59.31C126.924 61.245 129.174 62.235 131.919 62.235C135.294 62.235 138.084 60.525 139.659 57.51H140.109V60.525ZM132.729 59.535C128.544 59.535 125.844 56.565 125.844 51.705C125.844 46.845 128.544 43.875 132.684 43.875C134.844 43.875 136.644 44.64 138.084 46.125C139.524 47.61 140.244 49.455 140.244 51.705C140.244 53.955 139.524 55.845 138.084 57.33C136.689 58.815 134.889 59.535 132.729 59.535ZM19.71 97.825C18.09 99.67 15.66 100.705 13.095 100.705C10.665 100.705 8.73 99.895 7.29 98.275C5.85 96.655 5.13 94.675 5.13 92.335C5.13 89.95 5.805 87.97 7.2 86.35C8.595 84.73 10.44 83.92 12.825 83.92C15.39 83.92 17.82 84.955 19.44 86.8V83.2C17.595 81.895 15.39 81.175 12.825 81.175C6.3 81.175 1.935 85.81 1.935 92.29C1.935 99.04 6.75 103.45 13.05 103.45C15.39 103.45 17.73 102.82 19.71 101.425V97.825ZM26.8657 103C26.6407 101.065 26.5057 99.085 26.5057 96.925V73.3H23.0407C23.2207 75.685 23.4007 78.88 23.4007 81.625V103H26.8657ZM40.8174 81.175C34.6524 81.175 30.5124 85.81 30.5124 92.29C30.5124 98.725 34.6524 103.45 40.8174 103.45C47.0274 103.45 51.1674 98.725 51.1674 92.29C51.1674 85.81 47.0274 81.175 40.8174 81.175ZM40.8174 83.92C45.1374 83.92 48.0174 87.25 48.0174 92.245C48.0174 94.72 47.3424 96.79 46.0374 98.365C44.7324 99.94 42.9774 100.705 40.8174 100.705C38.7024 100.705 36.9474 99.94 35.6424 98.365C34.3374 96.79 33.6624 94.72 33.6624 92.245C33.6624 87.25 36.5424 83.92 40.8174 83.92ZM62.3442 103.45C65.5842 103.45 67.9692 101.83 69.2742 99.265H69.7242V103H73.0542C72.8292 101.155 72.6492 99.04 72.6492 96.925V81.625H69.5442V93.325C69.5442 97.645 66.9342 100.75 63.0192 100.75C59.7792 100.75 57.8892 98.86 57.8892 95.305V81.625H54.4242C54.6042 83.65 54.7842 85.495 54.7842 87.7V96.025C54.7842 100.48 57.8892 103.45 62.3442 103.45ZM94.1729 103H97.6379C97.4129 101.155 97.2779 99.31 97.2779 96.925V73.3H93.8129C93.9479 74.605 94.0379 76.045 94.0829 77.62C94.1279 79.195 94.1729 80.545 94.1729 81.625V85.855H93.7229C92.2379 82.84 89.4029 81.175 86.0279 81.175C80.8529 81.175 76.6679 85.135 76.6679 92.29C76.6679 99.49 80.9429 103.45 86.0279 103.45C89.3129 103.45 92.1479 101.785 93.7229 98.77H94.1729V103ZM86.7929 100.75C82.6079 100.75 79.9079 97.51 79.9079 92.29C79.9079 87.115 82.6079 83.875 86.7929 83.875C88.9529 83.875 90.7529 84.685 92.1479 86.26C93.5879 87.835 94.3079 89.86 94.3079 92.335C94.3079 94.765 93.5879 96.79 92.1479 98.365C90.7529 99.94 88.9529 100.75 86.7929 100.75Z" fill="white"/>
<path d="M118.403 14.8231C118.403 8.38135 122.224 4.571 128.62 4.571C135.015 4.571 138.796 8.38135 138.796 14.8231C138.796 21.264 135.015 25.0752 128.62 25.0752C122.224 25.0752 118.403 21.264 118.403 14.8231ZM133.571 14.8231C133.571 10.9732 131.739 8.65652 128.62 8.65652C125.5 8.65652 123.668 10.9732 123.668 14.8231C123.668 18.673 125.5 20.9501 128.62 20.9501C131.739 20.9501 133.571 18.673 133.571 14.8231Z" fill="white"/>
<path d="M141.177 18.28H145.973C145.973 20.4797 147.494 21.7756 150.067 21.7756C152.563 21.7756 154.005 20.8331 154.005 19.1838C154.005 17.1011 151.704 16.7089 149.131 16.2772C145.739 15.7269 141.684 15.0596 141.684 10.5423C141.684 6.81109 144.803 4.57183 150.067 4.57183C155.293 4.57183 158.412 6.96761 158.412 11.0531H153.616C153.616 8.97124 152.329 7.79229 150.067 7.79229C147.923 7.79229 146.636 8.65652 146.636 10.1098C146.636 11.877 148.781 12.2312 151.276 12.6629C154.747 13.252 158.957 13.9597 158.957 18.5939C158.957 22.6399 155.644 25.0752 150.067 25.0752C144.453 25.0752 141.177 22.5616 141.177 18.28Z" fill="white"/>
<path d="M63.5403 4.57946C60.1347 4.57946 57.7617 8.16597 57.2997 11.7239L57.2349 9.96259C56.7325 6.48379 54.4301 4.57946 50.8285 4.57946C47.3539 4.57946 44.9017 8.16597 44.417 11.7239L44.433 9.96259V4.97244H39.2872V24.6907H44.433V13.81C44.433 10.5895 45.9544 8.66498 48.5665 8.66498C50.8672 8.66498 52.1934 10.157 52.1934 12.7101V24.6907H57.3401V13.81C57.3401 10.5895 58.8607 8.66498 61.434 8.66498C63.7347 8.66498 65.1005 10.157 65.1005 12.7101V24.6907H70.2471V12.4745C70.2471 7.48603 67.7512 4.57946 63.5403 4.57946Z" fill="white"/>
<path d="M108.108 4.57946C104.619 4.57946 102.17 8.17354 101.667 11.7239L101.675 9.96259V4.97244H96.5282V24.6907H101.675V14.0069C101.675 10.6678 103.273 8.66498 106.002 8.66498C108.42 8.66498 109.824 10.2361 109.824 12.9062V24.6907H114.971V12.6706C114.971 7.56513 112.436 4.57946 108.108 4.57946Z" fill="white"/>
<path d="M30.6181 17.9586C30.0282 19.9361 28.4016 21.147 26.1017 21.147C23.5486 21.147 21.8925 18.8421 21.4961 15.6503H35.6941V14.8223C35.6941 14.3123 35.6697 13.8209 35.6251 13.3454L35.6225 13.2873H35.62C35.0882 7.75106 31.6144 4.57099 26.1017 4.57099C20.0184 4.57099 16.4311 8.34179 16.4311 14.8223C16.4311 21.2648 20.0184 25.0752 26.1017 25.0752C31.2862 25.0752 34.8298 22.4446 35.6411 17.9586H30.6181ZM26.1017 8.45961C28.6279 8.45961 30.2865 10.1064 30.6425 13.2873H21.4852C21.8782 10.1064 23.5368 8.45961 26.1017 8.45961Z" fill="white"/>
<path d="M87.8638 17.9586C87.2739 19.9361 85.6473 21.147 83.3466 21.147C80.7951 21.147 79.1382 18.8421 78.7419 15.6503H92.9398V14.8223C92.9398 14.3123 92.9145 13.8217 92.8708 13.3454L92.8683 13.2873H92.8657C92.3331 7.75106 88.861 4.57099 83.3466 4.57099C77.2642 4.57099 73.6768 8.34179 73.6768 14.8223C73.6768 21.2648 77.2642 25.0752 83.3466 25.0752C88.532 25.0752 92.0756 22.4446 92.8868 17.9586H87.8638ZM83.3466 8.45961C85.8736 8.45961 87.5323 10.1064 87.8874 13.2873H78.7309C79.1239 10.1064 80.7825 8.45961 83.3466 8.45961Z" fill="white"/>
<path d="M14.4697 8.53871V4.96398H8.38648V-8.01086e-05H3.23981V4.96398H0V8.53871H3.23981V18.7117C3.23981 22.719 5.69701 25.0752 9.86837 25.0752C11.3503 25.0752 12.9491 24.7209 14.1188 24.1714V20.3224C13.417 20.7145 12.4425 20.951 11.5068 20.951C9.55617 20.951 8.38648 19.8898 8.38648 18.0435V8.53871H14.4697Z" fill="white"/>
<path d="M106 102H109.729V102C122.083 101.987 161.832 97.2988 178.38 39.4951C183.31 22.2747 185 4 185 4" stroke="#F08261" stroke-width="2.54148"/>
</svg>
