<svg width="59" height="10" viewBox="0 0 59 10" fill="none" xmlns="http://www.w3.org/2000/svg">
<path d="M43.8809 5.52342C43.8809 3.12297 45.2972 1.70308 47.6676 1.70308C50.0377 1.70308 51.4394 3.12297 51.4394 5.52342C51.4394 7.92355 50.0377 9.34375 47.6676 9.34375C45.2972 9.34375 43.8809 7.92355 43.8809 5.52342ZM49.5028 5.52342C49.5028 4.08879 48.8238 3.22551 47.6676 3.22551C46.5111 3.22551 45.8321 4.08879 45.8321 5.52342C45.8321 6.95804 46.5111 7.80659 47.6676 7.80659C48.8238 7.80659 49.5028 6.95804 49.5028 5.52342Z" fill="#293276"/>
<path d="M52.3281 6.8116H54.1056C54.1056 7.63129 54.6695 8.11421 55.623 8.11421C56.5481 8.11421 57.0827 7.763 57.0827 7.14838C57.0827 6.37227 56.23 6.22615 55.2762 6.06528C54.0189 5.8602 52.5159 5.61153 52.5159 3.92824C52.5159 2.53783 53.6721 1.70339 55.623 1.70339C57.5599 1.70339 58.7161 2.59615 58.7161 4.11858H56.9383C56.9383 3.34279 56.4614 2.90346 55.623 2.90346C54.8283 2.90346 54.3514 3.22551 54.3514 3.76706C54.3514 4.42557 55.1464 4.55759 56.0712 4.71846C57.3575 4.93796 58.9182 5.20168 58.9182 6.92856C58.9182 8.43625 57.69 9.34375 55.623 9.34375C53.5423 9.34375 52.3281 8.40709 52.3281 6.8116Z" fill="#293276"/>
<path d="M23.5517 1.70108C22.2895 1.70108 21.4099 3.03756 21.2387 4.36337L21.2147 3.70705C21.0285 2.41071 20.1751 1.70108 18.8402 1.70108C17.5524 1.70108 16.6435 3.03756 16.4638 4.36337L16.4698 3.70705V1.84753H14.5625V9.19531H16.4698V5.14073C16.4698 3.94067 17.0337 3.22351 18.0018 3.22351C18.8545 3.22351 19.3461 3.77949 19.3461 4.73089V9.19531H21.2537V5.14073C21.2537 3.94067 21.8173 3.22351 22.771 3.22351C23.6238 3.22351 24.13 3.77949 24.13 4.73089V9.19531H26.0375V4.64308C26.0375 2.78419 25.1125 1.70108 23.5517 1.70108Z" fill="#293276"/>
<path d="M40.0674 1.70108C38.7743 1.70108 37.8664 3.04038 37.6802 4.36337L37.683 3.70705V1.84753H35.7754V9.19531H37.683V5.21411C37.683 3.96983 38.2753 3.22351 39.2867 3.22351C40.1831 3.22351 40.7034 3.80896 40.7034 4.80395V9.19531H42.611V4.71615C42.611 2.81366 41.6715 1.70108 40.0674 1.70108Z" fill="#293276"/>
<path d="M11.352 6.69181C11.1334 7.42872 10.5305 7.87996 9.67808 7.87996C8.73178 7.87996 8.11797 7.02107 7.97106 5.83166H13.2334V5.5231C13.2334 5.33307 13.2244 5.14994 13.2078 4.97277L13.2069 4.95113H13.206C13.0088 2.8881 11.7213 1.70308 9.67808 1.70308C7.42337 1.70308 6.09375 3.10823 6.09375 5.5231C6.09375 7.92386 7.42337 9.34375 9.67808 9.34375C11.5997 9.34375 12.9131 8.3635 13.2138 6.69181H11.352ZM9.67808 3.15213C10.6144 3.15213 11.2292 3.7658 11.3611 4.95113H7.96701C8.11267 3.7658 8.72742 3.15213 9.67808 3.15213Z" fill="#293276"/>
<path d="M32.5649 6.69181C32.3463 7.42872 31.7434 7.87996 30.8907 7.87996C29.945 7.87996 29.3309 7.02107 29.184 5.83166H34.4463V5.5231C34.4463 5.33307 34.4369 5.15026 34.4207 4.97277L34.4198 4.95113H34.4189C34.2214 2.8881 32.9345 1.70308 30.8907 1.70308C28.6363 1.70308 27.3066 3.10823 27.3066 5.5231C27.3066 7.92386 28.6363 9.34375 30.8907 9.34375C32.8126 9.34375 34.126 8.3635 34.4266 6.69181H32.5649ZM30.8907 3.15213C31.8273 3.15213 32.442 3.7658 32.5737 4.95113H29.1799C29.3256 3.7658 29.9403 3.15213 30.8907 3.15213Z" fill="#293276"/>
<path d="M5.36309 3.1816V1.84952H3.10838V-0.000284195H1.20081V1.84952H0V3.1816H1.20081V6.97246C1.20081 8.46573 2.11155 9.34375 3.65763 9.34375C4.20688 9.34375 4.79949 9.21173 5.23303 9.00697V7.57265C4.9729 7.71878 4.61172 7.8069 4.26489 7.8069C3.54191 7.8069 3.10838 7.41148 3.10838 6.72348V3.1816H5.36309Z" fill="#293276"/>
</svg>
