<svg width="100" height="24" viewBox="0 0 100 24" fill="none" xmlns="http://www.w3.org/2000/svg">
  <path fill-rule="evenodd" clip-rule="evenodd" d="M12.2441 0L0 5.9398L8.59234 10.1672L21.4272 3.23746L12.2441 0Z" fill="#D9D9D9"/>
  <path fill-rule="evenodd" clip-rule="evenodd" d="M24.0048 16.5084L12.1635 24L8.59229 10.1672L21.4271 3.23746L24.0048 16.5084Z" fill="#ECECEC"/>
  <path fill-rule="evenodd" clip-rule="evenodd" d="M3.786 18.6221L0 5.93979L8.59234 10.1672L12.1904 23.9732L3.786 18.6221Z" fill="#9C9B9B"/>
  <path fill-rule="evenodd" clip-rule="evenodd" d="M4.61802 7.4649C4.59123 7.4649 4.48409 7.7057 4.51087 7.73246C4.51087 7.75921 4.69837 7.91975 4.72516 7.86624C4.75194 7.83948 4.88587 7.65219 4.8323 7.59868C4.8323 7.57192 4.6448 7.41139 4.61802 7.4649ZM8.18914 19.7993C8.16235 19.7993 8.10878 19.8529 8.10878 19.8796C8.10878 19.9064 8.18914 19.9599 8.18914 19.9599C8.21592 19.9599 8.29628 19.9064 8.2695 19.8529C8.29628 19.8529 8.21592 19.7993 8.18914 19.7993ZM4.16181 5.83279C4.26921 5.91306 4.53772 5.8863 4.61828 5.75252C4.64513 5.67225 4.69883 5.61874 4.75253 5.53847C4.80624 5.45821 4.75253 5.29767 4.75253 5.2174C4.72568 5.11038 4.80624 5.00336 4.85994 4.92309C4.91364 4.81607 4.99419 4.84282 5.07475 4.81607C5.1553 4.78931 5.209 4.65553 5.2627 4.57526C5.31641 4.495 5.23585 4.52175 5.18215 4.52175L4.61828 4.65553C4.51087 4.68229 4.34977 4.68229 4.29607 4.81607L4.0007 5.35118C3.86645 5.53847 4.02755 5.72577 4.16181 5.83279ZM3.35627 6.04684L3.57108 5.69901C3.59793 5.67225 3.78589 5.40469 3.75904 5.35118C3.73219 5.29767 3.46368 5.40469 3.43682 5.40469C3.32942 5.43145 3.22202 5.43145 3.14146 5.53847C3.08776 5.61874 2.92665 5.83279 3.00721 5.93981C3.08776 6.04684 3.24887 6.23413 3.35627 6.04684ZM1.87946 6.87626C1.96001 6.92978 2.01372 6.92978 2.06742 6.90302C2.17482 6.87626 2.28223 6.84951 2.36278 6.82275C2.44333 6.796 2.52389 6.76924 2.60444 6.82275C2.7387 6.92978 2.81925 7.0368 3.00721 7.01004L3.27572 6.95653C3.35627 6.92978 3.40997 6.84951 3.43682 6.76924C3.51738 6.63546 3.19516 6.44817 3.11461 6.47493C2.98036 6.50168 2.71184 6.63546 2.60444 6.52844C2.55074 6.47493 2.47019 6.39466 2.41648 6.3679C2.36278 6.31439 2.25538 6.3679 2.17482 6.3679L1.90631 6.42142C1.82576 6.44817 1.77206 6.55519 1.71836 6.63546C1.6915 6.76924 1.82576 6.82275 1.87946 6.87626ZM3.73211 6.04684C3.73211 6.07359 3.86603 6.18062 3.86603 6.1271C3.89282 6.1271 3.97318 5.96657 3.94639 5.93981C3.91961 5.91306 3.83925 5.80603 3.81246 5.85955C3.78568 5.85955 3.70532 6.02008 3.73211 6.04684ZM3.57083 6.15386C3.54404 6.15386 3.4369 6.39466 3.46369 6.42142C3.49047 6.44818 3.65119 6.60871 3.67797 6.5552C3.70476 6.5552 3.8119 6.3144 3.78512 6.28764C3.78512 6.26088 3.59762 6.12711 3.57083 6.15386ZM4.96734 6.68898C5.07474 6.74249 5.10159 6.84951 5.10159 6.95654C5.12844 7.06356 5.10159 7.17058 5.18215 7.25085C5.23585 7.33112 5.34325 7.38463 5.39695 7.43814C5.53121 7.57192 5.71917 7.73246 5.90712 7.54517C6.04138 7.41139 5.93398 7.17058 5.82657 7.09032C5.77287 7.03681 5.74602 6.92978 5.74602 6.84951C5.74602 6.76925 5.88027 6.63547 5.79972 6.58196C5.66546 6.44818 5.50436 6.34115 5.3701 6.20737C5.2627 6.12711 5.10159 5.8863 4.96734 5.91306L4.40346 6.04684C4.32291 6.07359 4.0544 6.42142 4.1618 6.50169L4.37661 6.68898C4.45717 6.74249 4.56457 6.68898 4.64512 6.68898C4.75253 6.68898 4.88678 6.63547 4.96734 6.68898ZM5.42378 5.32443C5.50433 5.35118 5.61174 5.29767 5.69229 5.29767C5.9071 5.24416 6.0145 5.2174 6.20246 5.35118C6.33672 5.45821 6.49782 5.56523 6.60523 5.69901C6.68578 5.75252 6.68578 5.8863 6.68578 5.99332C6.71263 6.1271 6.71263 6.26088 6.73948 6.36791C6.76633 6.47493 6.84689 6.50168 6.90059 6.58195C6.98114 6.66222 6.98114 6.84951 7.00799 6.95653C7.03484 7.17058 7.2765 7.2776 7.41076 7.41138C7.49131 7.49165 7.65242 7.49165 7.73297 7.41138C7.86723 7.2776 7.81352 7.11707 7.78667 6.95653C7.75982 6.82275 7.84038 6.74249 7.89408 6.63546L8.13574 6.20737C8.18944 6.10035 8.3237 6.10035 8.40425 6.07359C8.5385 6.04684 8.59221 6.02008 8.67276 5.85954C8.75331 5.72577 8.78016 5.6455 8.75331 5.48496C8.72646 5.37794 8.67276 5.13714 8.72646 5.00336C8.78016 4.92309 8.80701 4.81607 8.78016 4.70904C8.78016 4.62878 8.72646 4.62878 8.67276 4.57526C8.61906 4.52175 8.61906 4.44148 8.59221 4.36122C8.59221 4.17393 8.83387 4.01339 8.86072 3.79934C8.86072 3.69232 8.83387 3.61205 8.75331 3.63881L8.4311 3.71908C8.3774 3.74583 8.29684 3.77259 8.21629 3.77259C8.10889 3.79934 8.00148 3.63881 7.92093 3.5853C7.81352 3.47827 7.57187 3.5853 7.41076 3.61205C7.2765 3.63881 6.95429 3.69232 6.92744 3.77259C6.82004 3.95988 6.76633 4.12041 6.60523 4.14717L5.98765 4.28095C5.82655 4.30771 5.74599 4.60202 5.66544 4.76255C5.61174 4.84282 5.55804 4.86958 5.47748 4.89633C5.37008 4.92309 5.31638 4.9766 5.26267 5.08362C5.20897 5.19065 5.37008 5.29767 5.42378 5.32443ZM10.0959 7.33111C10.1227 7.38463 10.0959 7.46489 10.1496 7.49165C10.2301 7.54516 10.2838 7.65219 10.257 7.78596C10.257 7.83948 10.069 8.05352 10.1764 8.10704C10.2301 8.13379 10.257 7.97326 10.2838 7.9465C10.3375 7.91974 10.4181 7.9465 10.4718 7.89299C10.5792 7.81272 10.5792 7.62543 10.4718 7.54516L10.2838 7.38463C10.1764 7.30436 10.3107 7.25085 10.2838 7.17058C10.2838 7.09031 10.1764 7.11707 10.1227 7.09031C10.069 7.06356 10.0959 6.90302 10.0422 6.90302C10.0153 6.90302 9.98848 6.98329 9.98848 7.01004C9.96162 7.0368 9.98848 7.14382 9.98848 7.19734C10.0153 7.2776 10.069 7.30436 10.0959 7.33111ZM11.3306 9.20403C11.3574 9.20403 11.411 9.07025 11.3842 9.04349C11.3574 9.01674 11.2771 8.93647 11.2503 8.98998C11.2235 8.98998 11.1699 9.12376 11.1967 9.15052C11.2235 9.15052 11.3039 9.23078 11.3306 9.20403ZM19.7623 7.83948C19.816 7.75921 19.9502 7.73245 20.004 7.73245C20.1114 7.7057 20.1651 7.57192 20.1919 7.51841C20.2188 7.43814 20.2188 7.35787 20.1919 7.2776C20.1919 7.22409 20.1651 7.09031 20.1114 7.01005C20.0845 6.98329 20.004 6.87627 19.9771 6.90302C19.9234 6.92978 20.0308 7.22409 20.0308 7.38463C20.0308 7.49165 19.8965 7.54516 19.8428 7.57192C19.7623 7.59867 19.7086 7.62543 19.6817 7.7057C19.6549 7.75921 19.4401 8.16055 19.4401 8.21406C19.4669 8.26757 19.5743 8.21406 19.6012 8.21406C19.6549 8.1873 19.6817 8.10704 19.7086 8.05352C19.7354 7.91974 19.7086 7.91974 19.7623 7.83948ZM20.1915 6.82276C20.2183 6.82276 20.2986 6.66222 20.2718 6.60871C20.245 6.58195 20.1647 6.47493 20.1111 6.50169C20.0843 6.50169 20.004 6.63547 20.0308 6.71573C20.0308 6.74249 20.1379 6.82276 20.1915 6.82276ZM18.2318 11.6388C18.2318 11.5853 18.2318 11.4783 18.1781 11.4248L17.8558 11.1572C17.829 11.1304 17.5873 10.8896 17.5605 10.8896C17.5068 10.9164 17.5605 11.1572 17.641 11.2375C17.7484 11.3445 17.8827 11.4248 17.9901 11.5318C18.0975 11.6121 18.0438 11.7191 18.0975 11.8529C18.0975 11.9064 18.366 12.1472 18.3929 12.1204C18.4197 12.0937 18.366 11.7993 18.3123 11.7726C18.2586 11.7458 18.2318 11.7191 18.2318 11.6388ZM16.4861 11.1304C16.4593 11.1304 16.4326 11.2375 16.4326 11.2642C16.4326 11.291 16.4861 11.3445 16.5129 11.3445C16.5665 11.3177 16.5933 11.2642 16.5397 11.2107C16.5665 11.2107 16.5129 11.1304 16.4861 11.1304ZM19.1711 9.20403C19.1711 9.17727 19.1175 9.17727 19.0907 9.23078C19.0639 9.28429 19.0371 9.3378 19.0371 9.39132C19.0371 9.44483 19.0907 9.49834 19.1175 9.47158C19.1711 9.47158 19.1978 9.28429 19.1711 9.20403ZM14.9291 13.9398C14.9022 13.9398 14.7143 14.2876 14.7143 14.3411C14.7143 14.4214 14.7411 14.5017 14.7411 14.582C14.7411 14.6622 14.6606 14.7157 14.6337 14.796C14.6068 14.8495 14.6606 14.9298 14.6606 15.0636C14.6606 15.1438 14.7411 15.1973 14.8217 15.2508C14.9291 15.3311 15.117 15.1438 15.117 14.9833C15.117 14.8228 15.0633 14.6087 15.0365 14.4749C15.0096 14.3947 14.9828 13.9398 14.9291 13.9398ZM19.4663 12.0937C19.5199 12.0669 19.627 11.9064 19.6002 11.8261C19.6002 11.7726 19.4395 11.6121 19.3592 11.6656C19.3056 11.7191 19.1985 11.8796 19.2252 11.9331C19.252 11.9866 19.4127 12.1204 19.4663 12.0937ZM20.0845 11.6656C20.165 11.6656 20.2456 11.6388 20.2993 11.6121C20.4067 11.5853 20.4604 11.7726 20.4604 11.8796C20.4873 12.0134 20.4873 12.1472 20.6215 12.2274C20.7289 12.281 20.8363 12.1739 20.89 12.0937C20.9169 12.0401 20.9706 11.9866 21.0243 12.0401C21.0511 12.0401 21.1317 12.1472 21.1585 12.1472C21.1854 12.1204 21.1317 11.9331 21.1317 11.9064C21.1317 11.8261 21.0511 11.7993 20.9974 11.7458C20.9437 11.6923 20.89 11.6121 20.8095 11.6121C20.7558 11.5853 20.6752 11.6656 20.6215 11.6121C20.5141 11.5318 20.4336 11.3713 20.2993 11.398C20.2456 11.398 19.8697 11.4515 19.8697 11.505C19.8697 11.5585 20.0576 11.6656 20.0845 11.6656ZM21.5879 15.4917C21.5611 15.4917 21.4808 15.6522 21.5076 15.7057C21.5343 15.7325 21.6147 15.8395 21.6683 15.8127C21.6951 15.8127 21.7754 15.6522 21.7486 15.5987C21.7486 15.5452 21.6415 15.4649 21.5879 15.4917ZM23.2792 14.8228C23.2792 14.796 23.172 14.689 23.1184 14.7157C23.0917 14.7425 23.0113 14.8763 23.0381 14.9298C23.0649 14.9565 23.1452 15.0636 23.1988 15.0368C23.2256 15.01 23.3059 14.8763 23.2792 14.8228ZM22.9039 15.1706C22.877 15.1973 22.8502 15.2508 22.8233 15.3311C22.7965 15.3846 22.5548 15.7325 22.6085 15.786C22.6353 15.8127 22.7428 15.9197 22.7696 15.893C22.7965 15.8395 22.8502 15.7592 22.8502 15.7325C22.9307 15.5719 23.0918 15.3579 23.065 15.2776C23.0381 15.2241 22.9307 15.1171 22.9039 15.1706ZM6.33647 12.8428C6.30968 12.8428 6.25611 12.8963 6.25611 12.9231C6.25611 12.9498 6.33647 13.0034 6.36325 13.0034C6.39004 13.0034 6.44361 12.9498 6.44361 12.9231C6.44361 12.8963 6.36325 12.8161 6.33647 12.8428ZM5.77289 12.388C5.74604 12.3612 5.63863 12.4415 5.69234 12.4682C5.79974 12.5485 5.85344 12.602 5.88029 12.6288C6.01455 12.7358 6.06825 12.8161 6.12195 12.7893C6.1488 12.7626 6.22936 12.709 6.17565 12.6555C6.1488 12.6288 6.12195 12.602 6.06825 12.5753C5.93399 12.495 5.85344 12.4415 5.77289 12.388ZM19.4128 10.6221C19.4664 10.6488 19.5735 10.4616 19.5735 10.408C19.5735 10.3278 19.4664 10.2208 19.4128 10.2208C19.3592 10.2208 19.2521 10.3813 19.2521 10.4348C19.2521 10.5151 19.386 10.6221 19.4128 10.6221ZM19.1981 10.194C19.2249 10.2207 19.3052 10.087 19.3052 10.0602C19.3052 10.0067 19.2249 9.92644 19.1981 9.95319C19.1713 9.95319 19.091 10.0602 19.091 10.087C19.091 10.1137 19.1713 10.194 19.1981 10.194ZM19.2252 12.5218C19.1178 12.4147 18.9836 12.3345 18.8762 12.2274C18.8493 12.2007 18.7688 12.1204 18.7419 12.1472C18.7151 12.1739 18.6345 12.3077 18.6614 12.3345C18.6882 12.3612 18.7419 12.4147 18.7688 12.4415L19.0104 12.6288C19.0373 12.6555 19.091 12.709 19.1178 12.709C19.1715 12.709 19.2789 12.5753 19.2252 12.5218ZM18.7151 11.7993C18.8225 11.7726 18.9299 11.7726 18.9836 11.6656C19.0373 11.5853 19.1716 11.4248 19.1447 11.3177C19.1179 11.1572 19.091 11.0234 19.0642 10.8629C19.0642 10.7826 18.9568 10.5151 18.8762 10.6221C18.8762 10.6488 18.8762 10.6488 18.8762 10.6756C18.8762 10.8094 18.9031 10.8629 18.8494 10.9699C18.7957 11.0502 18.7151 11.2642 18.6346 11.291C18.6077 11.291 18.5003 11.291 18.4734 11.3177C18.4466 11.3445 18.4466 11.398 18.4466 11.4515C18.4734 11.6121 18.554 11.8261 18.7151 11.7993Z" fill="#003E75"/>
  <path fill-rule="evenodd" clip-rule="evenodd" d="M9.88094 8.02677C9.9613 8.00002 10.0952 7.893 10.0684 7.78597C10.0684 7.7057 10.0684 7.54517 9.98808 7.57193C9.88094 7.59868 9.80058 7.67895 9.80058 7.81273C9.7738 7.86624 9.80058 8.05353 9.88094 8.02677ZM11.2502 7.14384C11.2502 7.14384 11.277 7.11708 11.2502 7.09032C11.2234 7.09032 11.1966 7.09032 11.1966 7.11708C11.1966 7.11708 11.1698 7.17059 11.1966 7.17059C11.1966 7.17059 11.2502 7.17059 11.2502 7.14384ZM21.7493 13.7258C21.7225 13.6188 21.5882 13.5385 21.5345 13.485C21.454 13.4047 21.2929 13.3244 21.2123 13.2174C21.1855 13.1639 21.1855 13.0569 21.1855 13.0034C21.1855 12.9231 21.1049 12.8963 21.0512 12.8696C20.9975 12.8161 21.0244 12.7091 20.9975 12.6555C20.9975 12.6288 20.8633 12.495 20.8364 12.495C20.8096 12.5218 20.8633 12.7626 20.8633 12.8161C20.8901 12.9231 20.917 13.0301 20.8364 13.1104C20.7559 13.2442 20.4336 12.9766 20.4336 12.8696C20.4336 12.7893 20.3531 12.6288 20.2725 12.6555C20.1651 12.6555 20.1383 12.7893 20.0846 12.8696C20.0309 12.9766 20.0309 13.0034 19.9235 12.9231C19.8161 12.8428 19.7892 12.9766 19.7355 13.0836C19.6818 13.1639 19.7087 13.2709 19.7355 13.3512C19.7624 13.4582 19.6818 13.5385 19.6281 13.6188C19.5476 13.7793 19.3059 13.6455 19.1985 13.806C19.1448 13.8863 19.0911 13.9666 19.1179 14.0468C19.1448 14.1539 19.1448 14.2876 19.1716 14.3947C19.1985 14.5017 19.3059 14.5017 19.3059 14.582L19.3596 14.9833C19.3865 15.0903 19.3865 15.1171 19.467 15.1973C19.5744 15.2776 19.5476 15.1438 19.6281 15.0903C19.6818 15.0101 19.8161 15.0903 19.8429 14.9833C19.8966 14.9298 19.8966 14.796 20.004 14.7693C20.0846 14.7425 20.192 14.7157 20.2457 14.7157C20.3262 14.689 20.4068 14.8495 20.4605 14.8763C20.541 14.9298 20.6216 14.8495 20.6753 14.7693C20.729 14.6622 20.7559 14.5285 20.8633 14.6355C20.9975 14.7425 20.8901 15.0903 21.0244 15.1973C21.0781 15.2509 21.1586 15.3579 21.2392 15.3579L21.5345 15.3044C21.5882 15.3044 21.6688 15.1706 21.6688 15.0903C21.7225 15.0101 21.6419 14.8228 21.6419 14.7425C21.6151 14.5552 21.8031 14.4482 21.7762 14.2609L21.7493 13.7258ZM8.99442 14.2609C8.96757 14.2074 8.88701 14.1806 8.86016 14.1271C8.67221 13.9666 8.48425 13.806 8.26944 13.6187C8.13518 13.5117 8.08148 13.4582 7.89352 13.5117C7.70557 13.5652 7.51761 13.592 7.32965 13.6455C7.16855 13.6723 7.06114 13.3512 6.87318 13.4047C6.65838 13.4582 6.47042 13.485 6.25561 13.5385C6.22876 13.5385 6.20191 13.5385 6.17506 13.5652C6.12135 13.592 6.06765 13.7525 6.01395 13.7525C5.96025 13.7525 5.90655 13.6723 5.85284 13.6455C5.66489 13.485 5.47693 13.3512 5.28897 13.1907C5.23527 13.1371 5.20842 13.1371 5.15472 13.0569C5.10101 13.0034 5.12786 12.6823 5.02046 12.709C4.88621 12.7358 4.59084 12.8696 4.53714 12.5753C4.51029 12.3612 4.40289 12.0669 4.56399 11.9064C4.61769 11.8529 4.7251 11.8529 4.80565 11.8261C4.91306 11.7993 5.02046 11.7726 5.10101 11.7458C5.23527 11.7191 5.47693 12.1204 5.53063 11.8529C5.55748 11.7458 5.36952 11.6388 5.34267 11.6121C5.26212 11.5318 5.23527 11.4515 5.20842 11.3177C5.18157 11.1037 5.39638 10.9432 5.45008 10.7559C5.50378 10.6488 5.42323 10.5151 5.45008 10.3813C5.47693 10.301 5.53063 10.2208 5.58433 10.1405C5.63804 10.0335 5.71859 9.89968 5.77229 9.79266C5.82599 9.71239 5.87969 9.63213 5.85284 9.55186C5.82599 9.41808 5.82599 9.33781 5.87969 9.23079C5.9334 9.12376 5.9871 9.0435 6.0945 9.01674C6.28246 8.96323 6.47042 8.93647 6.55097 8.66892C6.57782 8.58865 6.55097 8.42811 6.52412 8.34784C6.49727 8.24082 6.41672 8.18731 6.33616 8.1338C6.25561 8.05353 6.14821 7.97326 6.06765 7.893C6.01395 7.83948 5.9334 7.75922 5.85284 7.78597L5.34267 7.893C5.26212 7.91975 5.20842 8.05353 5.15472 8.1338C5.10101 8.24082 5.12787 8.32109 5.12787 8.42811L5.18157 8.77594C5.18157 8.85621 5.10101 9.09701 5.02046 9.0435C4.99361 9.0435 4.93991 8.96323 4.91306 8.96323C4.8325 8.88296 4.7251 8.80269 4.61769 8.72243L4.10752 8.32109C4.00012 8.24082 3.97327 7.94651 4.02697 7.81273C4.10752 7.65219 4.32233 7.43815 4.26863 7.19734C4.24178 7.09032 4.24178 6.95654 4.18808 6.90303C4.10752 6.82276 4.02697 6.74249 3.91957 6.68898C3.81216 6.60871 3.86587 6.79601 3.86587 6.84952C3.89272 6.95654 3.83901 7.14383 3.73161 7.17059C3.5705 7.25085 3.38255 7.25085 3.22144 7.27761C3.11404 7.30437 3.00663 7.33112 2.89923 7.35788C2.84552 7.35788 2.76497 7.41139 2.71127 7.38463C2.57701 7.33112 2.44276 7.06356 2.28165 7.11708C2.06684 7.17059 1.87889 7.19734 1.66408 7.25085C1.61038 7.25085 1.55667 7.27761 1.50297 7.27761C1.39557 7.30437 1.36872 7.49166 1.28816 7.57193C1.07335 7.7057 0.939099 7.54517 0.751141 7.41139C0.616886 7.30437 0.482631 7.35788 0.321524 7.38463C0.294673 7.38463 0.294673 7.38463 0.267822 7.38463L0.670588 8.74918C0.751141 8.72243 0.831695 8.72243 0.912248 8.69567C1.0465 8.66892 1.12706 8.80269 1.23446 8.88296C1.42242 9.0435 1.63723 9.20403 1.82518 9.39132C1.90574 9.47159 2.06684 9.55186 2.09369 9.68564C2.17425 10.1672 2.22795 10.6756 2.3085 11.1572C2.33535 11.291 2.33535 11.4783 2.38906 11.6121C2.41591 11.7726 2.65757 11.9064 2.76497 11.9866C2.95293 12.1472 3.11404 12.3077 3.30199 12.4415C3.3557 12.4682 3.4094 12.5485 3.43625 12.4682C3.48995 12.3612 3.48995 12.3077 3.4094 12.2542C3.24829 12.1204 3.08718 11.9599 2.89923 11.8261C2.84552 11.7726 2.89923 11.6121 2.97978 11.5853C3.03348 11.5853 3.08718 11.6656 3.14089 11.6923L3.70476 12.1739C3.81216 12.281 3.94642 12.3345 3.97327 12.5218C4.00012 12.7626 4.00012 12.9766 4.16123 13.1104L4.40289 13.3244C4.48344 13.3779 4.59084 13.3512 4.6714 13.3244C4.7251 13.3244 4.91306 13.2442 4.96676 13.2977C5.02046 13.3244 5.07416 13.3779 5.12787 13.4315C5.31582 13.592 5.45008 13.7258 5.63804 13.8863C5.69174 13.9398 5.74544 13.9933 5.79914 14.0468C5.87969 14.1271 5.77229 14.2609 5.74544 14.3412C5.69174 14.4214 5.61118 14.5552 5.61118 14.6622C5.61118 14.7425 5.63804 14.8228 5.63804 14.903C5.66489 15.1438 5.71859 15.4114 5.74544 15.6522C5.77229 15.8127 6.01395 15.9465 6.12135 16.0535C6.22876 16.1338 6.44357 16.2676 6.47042 16.4281L6.55097 16.99C6.63152 17.4716 6.68523 17.9264 6.76578 18.408C6.79263 18.5151 6.71208 18.5953 6.68523 18.6756C6.63152 18.7559 6.63152 18.8361 6.65838 18.9164C6.71208 19.184 6.73893 19.4515 6.76578 19.6923C6.79263 19.9064 6.98059 19.9866 7.11484 20.0937C7.16855 20.1472 7.2491 20.2542 7.32965 20.2274C7.38335 20.2274 7.41021 20.2007 7.46391 20.2007C7.51761 20.1739 7.67872 20.2007 7.73242 20.1204C7.75927 20.0669 7.57131 19.9331 7.54446 19.9064C7.46391 19.8529 7.41021 19.7993 7.38336 19.6923C7.3565 19.5318 7.2491 19.2107 7.32965 19.0502C7.54446 18.6756 7.75927 18.2743 7.97408 17.8729C8.08148 17.6856 7.89352 17.4716 8.00093 17.3111C8.10833 17.1238 8.21574 16.9365 8.32314 16.7492C8.37684 16.6689 8.4574 16.6689 8.53795 16.6422C8.64536 16.6154 8.69906 16.6154 8.77961 16.4816C8.83331 16.4014 8.88701 16.3211 8.88701 16.2141C8.86016 16.107 8.86016 16 8.83331 15.893C8.80646 15.7592 8.77961 15.6254 8.77961 15.4917C8.77961 15.4114 8.72591 15.3044 8.77961 15.2241C8.83331 15.1438 8.88701 15.0368 8.94072 14.9565C8.99442 14.8763 8.94072 14.7157 8.94072 14.6355C9.04812 14.5017 9.04812 14.3412 8.99442 14.2609ZM9.07563 6.23414C9.02193 6.23414 8.91453 6.23414 8.88768 6.3144C8.83397 6.36791 8.80712 6.44818 8.78027 6.50169C8.72657 6.58196 8.72657 6.58196 8.80712 6.66223C8.88768 6.71574 9.07563 6.76925 9.15619 6.66223C9.20989 6.5552 9.34414 6.44818 9.23674 6.34116C9.18304 6.28765 9.12934 6.20738 9.07563 6.23414ZM12.8344 9.25755C12.8611 9.23079 12.8611 9.23079 12.8611 9.20404H12.8344C12.8076 9.20404 12.8076 9.23079 12.7808 9.23079C12.754 9.23079 12.754 9.23079 12.754 9.25755C12.754 9.25755 12.754 9.2843 12.7808 9.2843C12.8076 9.2843 12.8344 9.25755 12.8344 9.25755Z" fill="#003E75"/>
  <path fill-rule="evenodd" clip-rule="evenodd" d="M17.8559 10.3545C17.9364 10.4616 17.9096 10.6221 17.8827 10.7291C17.8559 10.8094 17.8827 10.8896 17.9364 10.9432C17.9633 10.9699 17.9901 10.9967 17.9901 10.9967L18.0976 11.1037C18.1244 11.1037 18.1513 11.1572 18.1781 11.1572C18.2587 11.1572 18.2855 11.0769 18.2318 11.0502C18.1513 10.9967 18.0976 10.9432 18.0438 10.8896C17.9901 10.8361 17.9901 10.5953 18.0438 10.5686C18.0707 10.5686 18.0976 10.5686 18.0976 10.5686C18.1513 10.6221 18.2318 10.7024 18.2855 10.5953C18.3392 10.4883 18.2855 10.2475 18.1781 10.1672C18.1244 10.1137 17.9901 10.0602 18.0438 9.95319C18.0976 9.87292 18.1513 9.71239 18.2318 9.68563C18.3929 9.65888 18.554 9.65887 18.6614 9.49834C18.7688 9.28429 18.9031 9.07025 19.0105 8.8562C19.091 8.72242 19.0642 8.40135 18.9568 8.29433L18.5003 7.89299C18.3929 7.81272 18.6883 7.35787 18.742 7.41138C18.7957 7.43814 18.8762 7.54516 18.9299 7.57192C18.9836 7.62543 19.091 7.75921 19.1716 7.75921C19.2253 7.75921 19.3327 7.54516 19.279 7.49165C19.1984 7.41138 19.1179 7.38463 19.1716 7.25085C19.2253 7.17058 19.2521 7.06356 19.3327 6.98329C19.3864 6.87627 19.5475 6.92978 19.6012 6.82275C19.6818 6.68898 19.8697 6.44817 19.8429 6.28764C19.816 6.15386 19.816 6.04684 19.7892 5.91306C19.7892 5.80603 19.7623 5.6455 19.7086 5.59199C19.6549 5.51172 19.5475 5.48496 19.5207 5.35118C19.4938 5.19065 19.5207 5.13714 19.6012 5.00336C19.6549 4.92309 19.7086 4.78931 19.7892 4.76255C19.8697 4.7358 19.9503 4.7358 20.0308 4.70904C20.1919 4.68229 20.4336 4.68229 20.541 4.495C20.5947 4.38797 20.6484 4.33446 20.7558 4.3077C20.8901 4.28095 20.9169 4.28095 20.9438 4.44148C20.9706 4.54851 20.9706 4.62877 20.9169 4.7358C20.8632 4.81607 20.7558 4.94985 20.7827 5.08362C20.7827 5.27092 20.8364 5.51172 20.8632 5.69901C20.8632 5.77928 20.9975 5.93981 21.0512 5.83279C21.1049 5.72576 21.1586 5.61874 21.2391 5.51172C21.2928 5.43145 21.3734 5.32443 21.3465 5.24416C21.3465 5.16389 21.3197 5.05687 21.2928 4.9766C21.266 4.84282 21.2391 4.70904 21.2391 4.57526C21.2391 4.495 21.1854 4.38797 21.2391 4.3077C21.2928 4.20068 21.3465 4.14717 21.4271 4.12041C21.4808 4.12041 21.5345 4.12041 21.5882 4.09366L21.4271 3.29098L20.4873 2.94316C20.4604 2.94316 20.4336 2.94316 20.4067 2.94316L19.8966 3.05018L19.1716 3.21071C19.0642 3.23747 18.9299 3.29098 18.8225 3.29098C18.6614 3.34449 18.554 2.99667 18.3661 3.02342C18.1781 3.07694 17.9633 3.10369 17.7753 3.1572C17.6411 3.18396 17.48 3.26423 17.3457 3.18396C17.2652 3.10369 17.1846 3.05018 17.0772 2.96991C17.0235 2.9164 16.9161 2.80938 16.8356 2.83613C16.6744 2.83613 15.9495 2.96991 15.8689 3.10369C15.6541 3.47827 15.4661 3.8261 15.2513 4.20068C15.1708 4.33446 14.8754 4.33446 14.7412 4.36122C14.6606 4.38797 14.5801 4.38797 14.4995 4.41473C14.419 4.44148 14.3653 4.54851 14.3384 4.62878C14.2847 4.70904 14.2578 4.81607 14.2041 4.89633C14.1504 4.9766 14.043 4.9766 13.9625 5.00336L13.6134 5.08362C13.5329 5.11038 13.4255 5.11038 13.3718 5.19065C13.2375 5.35118 13.2375 5.53847 13.0227 5.59199C12.9153 5.61874 12.8079 5.6455 12.7273 5.67225C12.6199 5.69901 12.5662 5.61874 12.4857 5.53847C12.4588 5.51172 12.3783 5.45821 12.4051 5.40469C12.432 5.35118 12.4588 5.32443 12.5125 5.29767C12.5394 5.29767 12.7005 5.29767 12.6468 5.2174C12.6199 5.16389 12.5662 5.13714 12.5394 5.11038C12.4588 5.05687 12.4051 4.9766 12.2977 4.9766C12.2172 5.00336 12.0561 5.05687 11.9755 5.00336C11.895 4.94985 11.8681 4.86958 11.7607 4.89633C11.6533 4.92309 11.5459 4.94985 11.4385 4.9766C11.2774 5.00336 11.2505 5.16389 11.17 5.29767C11.0357 5.53847 10.9015 5.77928 10.7672 5.99332C10.6867 6.15386 10.633 6.23413 10.6598 6.44817L10.7135 6.796C10.7135 6.87627 10.8478 7.0368 10.9283 7.01005C10.9552 7.01005 11.0089 6.98329 11.0357 6.98329C11.0894 6.98329 11.1163 7.0368 11.1968 7.0368C11.2774 7.0368 11.4116 7.01005 11.4653 6.92978C11.519 6.82275 11.5459 6.76924 11.5459 6.63546C11.519 6.52844 11.4116 6.39466 11.4116 6.28764C11.3848 6.18061 11.4922 6.04684 11.5459 5.96657C11.5996 5.85954 11.7338 5.72576 11.8413 5.75252C12.0024 5.77928 12.0561 5.85954 11.9755 5.99332C11.895 6.15386 11.6801 6.15386 11.6801 6.47493C11.6801 6.63546 11.8144 6.63546 11.895 6.60871C12.0292 6.60871 12.0561 6.66222 12.0292 6.82275C12.0292 6.87627 11.9755 6.92978 11.9487 6.98329C11.895 7.06356 11.7875 7.0368 11.707 7.09031C11.6533 7.14383 11.707 7.19734 11.6264 7.25085C11.5727 7.2776 11.519 7.2776 11.4922 7.30436C11.4385 7.30436 11.3579 7.33112 11.2505 7.33112C11.2237 7.33112 11.17 7.33112 11.1431 7.30436V7.2776C11.1431 7.25085 11.1431 7.25085 11.17 7.22409C11.17 7.14383 11.0894 7.06356 11.0357 7.09031C11.0089 7.11707 10.9552 7.19734 10.982 7.22409C11.0089 7.2776 11.0626 7.30436 11.0626 7.33112C11.0626 7.35787 11.0626 7.35787 11.0357 7.38463C10.9552 7.41138 10.9015 7.43814 10.8746 7.51841C10.7404 7.73245 10.8478 7.91974 10.6598 8.16055C10.633 8.21406 10.6061 8.26757 10.5792 8.32108C10.5255 8.42811 10.6061 8.56189 10.6061 8.66891C10.6598 9.01673 10.257 8.82944 10.1765 8.98998C10.1228 9.07025 10.1228 9.15051 10.1228 9.23078C10.1228 9.28429 10.1496 9.55185 10.1765 9.57861C10.257 9.63212 10.2839 9.68563 10.3644 9.68563C10.445 9.65888 10.5792 9.68563 10.633 9.57861C10.6598 9.55185 10.6867 9.49834 10.7135 9.44483C10.7135 9.39132 10.6867 9.3378 10.7135 9.25754C10.7672 9.15051 10.8209 9.07025 10.8746 8.96322C10.9283 8.8562 11.0357 8.90971 11.1163 8.82944C11.1968 8.74918 11.1968 8.6154 11.3042 8.69566C11.3848 8.77593 11.4653 8.8562 11.5727 8.90971C11.5996 8.93647 11.6264 8.98998 11.6801 9.12376C11.707 9.17727 11.6801 9.31105 11.707 9.31105C11.7338 9.31105 11.7875 9.17727 11.7875 9.15051C11.8144 9.097 11.7875 8.98998 11.8144 8.96322C11.8144 8.93647 11.895 8.96322 11.8681 8.88296C11.8681 8.8562 11.7875 8.80269 11.7875 8.80269C11.7875 8.80269 11.5996 8.64215 11.5727 8.6154C11.519 8.56189 11.3848 8.48162 11.4385 8.40135C11.519 8.26757 11.5727 8.32108 11.6533 8.40135C11.7338 8.48162 11.8144 8.53513 11.895 8.6154C11.9755 8.69566 12.0024 8.80269 12.0024 8.90971C12.0024 9.01673 12.1366 9.20403 12.2172 9.15051C12.2977 9.097 12.2172 8.88296 12.2977 8.82944C12.3514 8.77593 12.4857 8.74918 12.4588 8.6154C12.4588 8.58864 12.432 8.53513 12.4588 8.48162C12.4588 8.42811 12.5125 8.40135 12.5125 8.34784C12.5394 8.29433 12.6199 8.10704 12.6736 8.08028C12.7273 8.05352 12.8616 8.21406 12.9153 8.10704C12.9421 8.05352 12.969 7.9465 13.0764 7.91974C13.1838 7.89299 13.2107 7.9465 13.3181 8.00001C13.3718 8.05352 13.4792 8.10704 13.4792 8.1873C13.4792 8.26757 13.506 8.48162 13.3986 8.48162C13.3181 8.53513 13.2107 8.53513 13.1301 8.53513C13.0495 8.56188 12.9958 8.40135 12.9153 8.42811C12.8347 8.45486 12.7542 8.42811 12.7273 8.50837C12.6736 8.69566 12.5662 8.69566 12.5125 8.80269C12.4857 8.8562 12.4588 9.04349 12.5125 9.097C12.5931 9.17727 12.7542 9.12376 12.8347 9.097C13.0764 9.04349 13.1838 9.3378 13.157 9.55185C13.1301 9.68563 12.7542 9.73914 12.6736 9.71239C12.5931 9.68563 12.5394 9.57861 12.432 9.60536C12.3514 9.63212 12.2172 9.63212 12.1635 9.71239C12.1098 9.79265 12.0561 9.92643 11.9755 9.95319C11.895 9.97995 11.7607 10.0335 11.6801 9.97995C11.5996 9.92643 11.5459 9.84617 11.4653 9.79265C11.3579 9.71239 11.4116 9.55185 11.3311 9.47158C11.2505 9.41807 11.17 9.44483 11.0894 9.47158C11.0089 9.49834 10.8746 9.49834 10.7941 9.55185C10.7135 9.63212 10.7135 9.73914 10.633 9.81941C10.5524 9.89968 10.4181 9.89968 10.3376 9.89968C10.2033 9.92643 10.0422 10.2475 10.0691 10.408C10.0959 10.6488 9.98853 10.7826 9.88112 10.9967C9.80057 11.1304 9.63946 11.3445 9.66631 11.5318C9.69316 11.7726 9.74687 11.9866 9.77372 12.2274C9.80057 12.388 10.0422 12.5218 10.1496 12.602C10.2302 12.6823 10.3376 12.7626 10.4181 12.8428C10.4718 12.8963 10.5524 12.9766 10.6061 12.9498C10.7404 12.9498 10.982 12.8963 11.0894 12.7626C11.1431 12.6555 11.17 12.5753 11.2774 12.5485C11.3579 12.5218 11.4922 12.4682 11.5727 12.5485C11.707 12.6823 11.8144 12.7358 11.8413 12.9498L11.9487 13.7525C11.9755 13.8863 11.9755 14.2341 12.0829 14.3144C12.1366 14.3947 12.2172 14.4214 12.2709 14.5017C12.3246 14.5552 12.3246 14.6622 12.3246 14.7425C12.3783 15.01 12.4051 15.3044 12.4588 15.5719C12.4857 15.786 12.5125 15.8662 12.6468 15.9733C12.781 16.0803 12.9153 16.2943 13.0764 16.2408C13.2644 16.1873 13.4792 16.1605 13.6671 16.107C13.8282 16.0803 13.9088 15.786 13.9893 15.6522C14.043 15.5719 14.0162 15.4917 13.9893 15.4114L13.9356 14.9833C13.9088 14.7692 14.0699 14.582 14.1504 14.4214C14.1773 14.3411 14.2578 14.2609 14.231 14.1806C14.2041 14.0468 14.2041 13.9398 14.1773 13.806C14.1504 13.699 14.1504 13.6187 14.0967 13.5652C14.0162 13.485 13.9356 13.4314 13.9088 13.2977C13.8819 13.1906 13.8551 13.0836 13.9088 12.9766L14.0967 12.6555C14.1504 12.5753 14.1773 12.4415 14.2847 12.4415C14.3921 12.4147 14.4458 12.2542 14.4995 12.1472C14.5532 12.0401 14.6069 11.9599 14.6069 11.8261C14.6069 11.7726 14.5801 11.4515 14.5264 11.4515C14.4727 11.4515 14.3921 11.6923 14.3653 11.7191C14.3115 11.8261 14.2041 11.8261 14.1236 11.8529C13.9625 11.8796 13.7477 11.6121 13.6403 11.505C13.5866 11.4515 13.506 11.398 13.506 11.3177C13.4792 11.2107 13.4792 11.0769 13.4523 10.9699C13.4255 10.7826 13.157 10.6221 13.0227 10.5418C12.9421 10.4883 12.9421 10.3813 12.9421 10.301C12.9153 10.194 12.8616 10.0067 12.9153 9.89968C12.969 9.7659 13.0764 9.79265 13.1301 9.92643C13.1838 10.0335 13.1838 10.194 13.1838 10.301C13.2107 10.5418 13.4255 10.5686 13.5329 10.7024C13.694 10.8361 13.5597 11.184 13.7208 11.3177C13.7745 11.3713 13.8551 11.4783 13.9356 11.505C14.0162 11.5318 14.1504 11.505 14.231 11.4515C14.2847 11.4248 14.3115 11.3177 14.3653 11.2642C14.4458 11.1304 14.4995 11.0234 14.5801 10.8896C14.6875 10.7024 14.8217 10.5686 14.7412 10.3278C14.6875 10.0335 14.3921 10.2207 14.2578 10.1137C14.1773 10.0335 14.0967 9.95319 13.9893 9.89968C13.9625 9.87292 13.9088 9.84617 13.9356 9.7659C13.9356 9.71239 14.0162 9.60536 14.0699 9.65887C14.1504 9.68563 14.231 9.79265 14.2847 9.84617C14.3653 9.89968 14.4727 9.84617 14.5532 9.84617C14.6338 9.81941 14.7412 9.79265 14.8217 9.84617C14.9023 9.92643 14.9828 9.89968 15.0902 9.89968L15.3587 9.84617C15.4393 9.81941 15.5467 9.95319 15.6004 10.0067C15.6541 10.0602 15.7347 10.1137 15.7615 10.2207C15.7884 10.3545 15.7884 10.4883 15.8152 10.6221C15.8421 10.7024 15.8421 10.8094 15.8958 10.8629C15.9763 10.9432 16.0569 11.0234 16.1643 11.0769C16.2448 11.1304 16.2985 11.184 16.3522 11.0769C16.4328 10.9432 16.4059 10.8629 16.3791 10.7291C16.3522 10.5151 16.5402 10.301 16.6207 10.1405C16.6476 10.0602 16.7013 9.97995 16.755 9.92643C16.8087 9.87292 16.9967 9.81941 17.0772 9.87292C17.1578 9.92643 17.2383 10.0067 17.292 10.0602C17.3189 10.087 17.3457 10.1137 17.3726 10.1137C17.4531 10.1672 17.48 10.1137 17.5337 10.1137C17.6142 10.1137 17.6948 10.194 17.7485 10.2207C17.7753 10.2743 17.8559 10.3545 17.8559 10.3545Z" fill="#003E75"/>
  <path fill-rule="evenodd" clip-rule="evenodd" d="M27.9788 8.69565H31.0666V18.2207H33.6712V8.69565H36.5174L37.3498 6.26086H28.0056V8.69565H27.9788ZM44.4653 8.69565L45.3514 6.26086H38.4775V18.2207H45.1366V15.7859H41.0552V13.2977H44.5996V10.8896H41.0552V8.66889L44.4653 8.69565ZM52.6549 11.398C52.628 11.4515 52.5743 11.5318 52.5475 11.5853C52.5206 11.5585 52.5206 11.5318 52.4938 11.505L49.0031 6.26086H46.7208V18.2207H49.2985V11.2375L51.8225 15.0635H53.2993L55.6622 11.291V18.2207H58.2399V6.26086H55.9039C55.877 6.26086 52.6549 11.398 52.6549 11.398ZM66.2147 8.69565L67.1008 6.26086H60.2269V18.2207H66.886V15.7859H62.8046V13.2977H66.349V10.8896H62.8046V8.66889L66.2147 8.69565ZM76.1496 13.4314L76.0153 13.2709L70.7794 6.28762H68.4433V18.2475H71.021V10.9164C71.0479 10.9431 71.0747 10.9699 71.1016 11.0234L76.5255 18.2475H78.7273V6.26086H76.1496V13.4314ZM96.7712 11.0769C95.6703 10.4615 95.0259 10.0334 95.0259 9.36454C95.0259 8.66889 95.8046 8.56187 96.2879 8.56187C96.986 8.56187 97.7379 8.80267 98.3823 9.20401L98.436 9.23076L99.2684 6.92976L98.973 6.76922C98.1675 6.36789 97.2546 6.15384 96.2342 6.15384C94.0056 6.15384 92.4482 7.51839 92.4482 9.49832C92.4482 10.408 92.7436 11.1839 93.3343 11.8261C93.8982 12.4415 94.6768 12.8963 95.3481 13.2709C96.4222 13.8863 97.0934 14.3144 97.0934 15.0368C97.0934 15.7859 96.1268 16 95.6435 16C94.5963 16 93.8176 15.4916 93.6297 15.3311L93.1195 14.9565L92.2603 17.3378L92.3408 17.3913C93.3343 18.0602 94.4352 18.3813 95.724 18.3813C98.0869 18.3813 99.8054 16.9097 99.8054 14.903C99.7517 12.7893 98.0869 11.8528 96.7712 11.0769ZM85.7623 15.9732C83.7484 15.9732 82.5133 14.5552 82.5133 12.2809C82.5133 10.0067 83.7753 8.58862 85.7623 8.58862C87.7761 8.58862 89.0112 10.0067 89.0112 12.2809C89.0381 14.5552 87.7761 15.9732 85.7623 15.9732ZM85.7623 6.18059C84.1244 6.18059 82.5939 6.79598 81.493 7.89297C80.4189 9.01671 79.8282 10.5953 79.8282 12.3077C79.8282 14.1538 80.4995 15.7592 81.6809 16.8829C82.755 17.8729 84.1512 18.3813 85.7623 18.3813C87.4271 18.3813 88.877 17.8194 89.9779 16.7492C91.1057 15.6254 91.7232 14.0468 91.7232 12.2809C91.7232 10.6221 91.2131 9.17725 90.2196 8.0535C89.1455 6.84949 87.5882 6.18059 85.7623 6.18059Z" fill="white"/>
</svg>
