<svg class="site-logo" aria-hidden="true" focusable="false" xmlns="http://www.w3.org/2000/svg" width="347" height="85" viewBox="0 0 347 85">
	<g fill="none" fill-rule="evenodd">
		<path d="M74.786 11.985L42.936.665.47 21.296 13.593 65.47l29.145 18.718L83.79 58.082z"></path>
		<path fill="#D9D9D9" d="M42.936.665L.469 21.296l29.798 14.779 44.519-24.09z"></path>
		<path fill="#ECECEC" d="M83.79 58.082L42.737 84.187l-12.47-48.113 44.519-24.089z"></path>
		<path fill="#9C9B9B" d="M13.592 65.47L.47 21.296l29.798 14.779 12.471 48.113z"></path>
		<g fill="#003E75">
			<path d="M16.506 26.617c-.093.046-.51.808-.392.91.038.117.651.64.733.493.068-.124.54-.783.391-.911-.037-.116-.65-.64-.732-.492M28.897 69.608c-.055.01-.312.195-.277.324.017.084.239.288.312.267.052-.014.334-.211.308-.333-.008-.088-.238-.288-.343-.258M14.851 20.9c.348.3 1.347.202 1.61-.274.134-.24.326-.49.42-.756.171-.307.015-.814-.033-1.144-.055-.373.211-.703.367-.985.192-.345.504-.237.778-.363.297-.066.48-.572.632-.848.16-.285-.096-.209-.24-.177l-1.974.441c-.399.09-.907.074-1.156.523l-1.03 1.857c-.39.702.223 1.375.626 1.725M12.057 21.703l.708-1.186c.07-.117.751-1.044.672-1.204-.079-.158-1.04.185-1.16.212-.365.081-.786.072-1.014.483-.155.28-.788 1.064-.447 1.36.325.281.883.936 1.241.335M6.946 24.59c.236.205.427.196.693.137.35-.08.7-.157 1.049-.235.245-.055.604-.216.832-.018.47.407.772.79 1.357.659l.966-.216c.313-.07.435-.364.602-.664.236-.427-.878-1.106-1.162-1.042-.427.095-1.367.556-1.765.212-.206-.18-.421-.432-.648-.562-.224-.193-.562-.042-.802.012l-.927.207c-.306.068-.451.465-.612.755-.204.366.214.58.417.755M13.443 21.64c.035.096.433.44.51.3.078-.044.352-.537.239-.635-.08-.07-.417-.47-.511-.3-.077.043-.351.537-.238.635M12.85 22.077c-.093.045-.51.808-.392.91.1.087.631.676.733.493.093-.046.51-.808.391-.911-.037-.117-.65-.64-.732-.492M17.67 23.937c.332.19.448.514.51.93.051.357.028.789.282 1.009.23.248.514.445.764.66.503.436 1.13 1.019 1.737.407.48-.483.107-1.27-.273-1.6-.19-.165-.285-.533-.26-.821.02-.24.43-.718.2-.917-.492-.427-.985-.854-1.479-1.28-.329-.285-.97-1.103-1.422-1.002l-1.922.429c-.32.07-1.17 1.306-.818 1.61l.76.657c.26.226.686.026.964-.037.267-.06.704-.262.956-.045M19.243 19.154c.282.118.68-.069.957-.13.705-.158 1.129-.322 1.753.218.458.396 1.053.757 1.443 1.25.233.201.238.694.283 1.004.066.45.13.897.198 1.346.059.408.35.467.558.72.278.24.274.943.328 1.31.104.713.962 1.163 1.4 1.542.308.266.8.314 1.113 0 .42-.424.283-.99.2-1.556-.07-.484.143-.758.35-1.132l.805-1.448c.22-.4.61-.394.966-.473.47-.106.66-.23.935-.724.26-.469.378-.724.294-1.297-.06-.409-.321-1.248-.105-1.636.178-.322.324-.62.206-1.027-.041-.277-.214-.325-.344-.499-.192-.165-.204-.47-.242-.727-.115-.78.797-1.296.858-2.033.033-.396-.105-.62-.407-.553l-1.155.258c-.224.05-.48.157-.708.158-.333.075-.74-.423-.981-.648-.372-.348-1.233 0-1.727.11-.437.097-1.54.278-1.71.59-.342.623-.54 1.19-1.161 1.33l-2.101.47c-.523.116-.874 1.156-1.15 1.65-.177.322-.393.373-.688.44-.39.086-.53.3-.75.692-.17.307.382.712.582.795M35.464 26.195c.088.17.021.432.17.561.257.223.45.55.392.988-.022.17-.642.947-.279 1.105.14.06.247-.482.39-.513.19-.119.464-.022.65-.17.386-.31.377-.93.021-1.226l-.658-.547c-.33-.275.07-.439.028-.715-.044-.302-.402-.142-.533-.255-.15-.09-.062-.685-.285-.61-.052.016-.212.314-.226.363-.074.134-.028.49.024.624.092.178.224.237.306.395M39.751 32.638c.073-.043.29-.443.183-.535-.074-.063-.34-.388-.43-.229-.072.043-.288.443-.182.534.034.091.356.362.43.23M69.043 27.942c.144-.26.613-.327.826-.387.382-.1.55-.548.615-.75.094-.29.078-.581.035-.863-.032-.22-.119-.661-.323-.958-.047-.076-.34-.448-.495-.351-.213.13.187 1.137.16 1.633-.017.353-.438.555-.645.64-.25.105-.46.22-.59.467-.118.222-.883 1.538-.802 1.724.08.179.42.027.525-.036.16-.097.295-.36.388-.528.163-.293.144-.298.306-.591M70.502 24.357c.082-.046.413-.517.29-.726-.069-.116-.348-.439-.557-.339-.08.045-.366.504-.289.726.04.1.373.405.556.34M63.71 41.158c-.028-.191-.025-.58-.17-.708l-1.073-.95c-.096-.083-.92-.938-1.04-.888-.163.069-.033.922.275 1.2.39.352.805.675 1.206 1.013.358.299.188.69.362 1.12.03.202.908 1.002.995.933.111-.09-.127-1.09-.252-1.198-.183-.157-.264-.25-.304-.522M57.681 39.404c-.054.032-.215.337-.194.505.015.125.175.277.323.242.163-.063.24-.257.132-.443-.036-.067-.17-.367-.26-.304M66.949 32.715c-.03-.08-.204-.07-.317.056a1.06 1.06 0 0 0-.191.573c0 .145.154.341.318.321.225-.06.284-.723.19-.95M52.238 49.121c-.136-.036-.735 1.195-.768 1.393-.044.266.126.545.08.811-.043.251-.257.507-.372.713-.123.22.047.466.074.961.017.315.296.486.513.621.414.255.984-.382 1.036-.926.037-.542-.185-1.264-.263-1.797-.027-.175-.132-1.732-.3-1.776M68.002 42.714c.182-.108.537-.654.48-.922-.036-.16-.556-.72-.804-.595-.22.143-.52.705-.479.922.045.238.642.69.803.595M70.178 41.253c.238.025.545-.122.781-.174.402-.09.531.557.581.893.072.489.091.977.538 1.168.38.156.77-.175.932-.47.1-.177.317-.354.494-.201.076.034.36.407.435.346.071-.057-.086-.72-.102-.823-.035-.241-.323-.4-.466-.523-.174-.151-.404-.447-.619-.506-.216-.06-.476.207-.675.027-.344-.312-.673-.801-1.118-.702-.175.039-1.499.174-1.534.39-.025.158.622.604.753.575M75.382 54.548c-.08.046-.395.597-.289.727.07.085.406.428.556.338.082-.045.373-.55.29-.726-.04-.1-.413-.421-.557-.34M81.238 52.21c-.04-.1-.396-.44-.557-.34-.081.047-.37.58-.29.727.067.119.389.44.558.34.114-.048.362-.521.289-.727M79.9 53.443c-.105.13-.164.302-.32.53-.102.147-.934 1.381-.76 1.574.114.127.46.511.556.34.105-.175.256-.464.323-.582.29-.522.878-1.289.76-1.575-.038-.1-.424-.468-.56-.287M22.434 45.317c-.076.027-.294.188-.25.296.018.072.273.261.4.236.063-.014.295-.194.25-.297-.019-.05-.307-.269-.4-.235M20.466 43.766c-.118-.068-.472.168-.3.313.398.298.57.463.652.534.472.403.691.648.84.594.093-.048.372-.273.191-.441-.119-.104-.173-.14-.33-.25-.497-.341-.723-.56-1.053-.75M67.786 37.625c.14.122.524-.578.532-.711.04-.246-.386-.652-.54-.638-.184.017-.524.578-.531.712-.03.28.434.624.539.637M67.048 36.099c.092.08.342-.377.347-.464.026-.16-.252-.425-.352-.416-.12.01-.343.377-.348.464-.018.184.284.408.353.416M67.177 44.252c-.387-.362-.802-.694-1.202-1.041-.078-.067-.347-.35-.447-.26-.083.075-.37.553-.25.657.117.138.314.272.394.342l.808.698c.078.068.284.269.402.246.118-.023.442-.504.295-.642M65.37 41.677c.36-.081.71-.055.929-.447.158-.285.618-.831.56-1.213-.077-.53-.161-1.061-.233-1.593-.035-.265-.371-1.173-.634-.852a.39.39 0 0 0-.038.204c.02.449.13.682-.078 1.058-.154.279-.428 1.068-.73 1.135-.138.03-.457.02-.567.127-.138.125-.09.289-.064.463.074.504.325 1.237.856 1.118"></path>
			<path d="M34.708 28.564c.259-.058.709-.435.648-.846-.04-.274-.006-.842-.306-.775a.873.873 0 0 0-.674.795c-.018.3.04.89.332.826M39.493 25.518c.01-.046.059-.134-.013-.145-.063-.009-.163.002-.207.078-.025.046-.054.144.015.155.06.009.189-.018.205-.088M75.907 48.456c-.06-.395-.547-.65-.785-.856-.301-.26-.87-.565-1.073-.959-.107-.203-.102-.553-.136-.785-.034-.235-.286-.37-.427-.492-.182-.157-.096-.541-.18-.757-.018-.135-.44-.6-.546-.516-.113.091.104.977.122 1.1.048.332.182.743-.057 1.012-.255.46-1.353-.478-1.408-.857-.041-.28-.261-.806-.562-.74-.338-.03-.498.45-.656.734-.206.372-.231.494-.552.216-.327-.282-.44.215-.621.54-.176.319-.076.61-.023.974.059.404-.164.656-.342.976-.322.581-1.14.12-1.448.678-.153.275-.374.529-.323.88.052.353.047.88.176 1.2.048.327.455.331.506.676l.2 1.374c.057.377.108.5.366.724.355.306.315-.175.557-.419.166-.299.622-.044.788-.343.205-.208.23-.656.527-.722.262-.058.607-.223.873-.195.27-.06.515.447.747.546.259.224.567-.11.7-.35.213-.383.294-.825.66-.508.479.413.08 1.575.52 1.956.178.154.503.58.74.526l1.029-.23c.204-.046.445-.47.51-.699.145-.262-.073-.956-.114-1.233-.1-.678.592-.998.496-1.65l-.264-1.8M31.68 50.27c-.126-.183-.338-.315-.492-.447-.667-.58-1.342-1.158-2.009-1.737-.469-.411-.688-.528-1.26-.396-.653.146-1.305.293-1.958.433-.6.139-.953-1.012-1.59-.873-.704.154-1.408.315-2.11.469-.082.022-.17.03-.243.08-.14.089-.36.687-.529.673-.168-.015-.414-.244-.545-.353-.66-.557-1.266-1.053-1.925-1.602-.154-.14-.29-.211-.444-.44-.158-.232-.12-1.305-.427-1.24-.506.119-1.532.558-1.679-.431-.11-.74-.454-1.76.11-2.331.205-.205.564-.205.806-.264.36-.073.711-.154 1.064-.234.431-.096 1.32 1.334 1.516.33.065-.408-.513-.734-.659-.858-.323-.28-.353-.594-.426-1.056-.102-.74.623-1.327.851-1.942.22-.403-.103-.88.008-1.305.08-.293.3-.58.44-.828.22-.396.438-.8.666-1.202.146-.257.352-.528.301-.873-.059-.432-.132-.74.08-1.121.205-.367.338-.623.711-.711.681-.147 1.298-.25 1.547-1.195.073-.286-.007-.814-.095-1.085-.052-.344-.403-.557-.608-.733-.324-.278-.638-.55-.96-.828-.199-.176-.434-.455-.705-.396l-1.78.396c-.302.066-.485.557-.638.843-.199.352-.132.637-.074 1.033l.176 1.217c.036.249-.27 1.136-.558.902-.124-.037-.278-.235-.387-.323a58.44 58.44 0 0 0-.983-.806l-1.737-1.43c-.389-.315-.49-1.312-.234-1.773.322-.572.99-1.35.88-2.097-.06-.36-.06-.821-.324-1.055-.293-.257-.593-.514-.886-.77-.374-.323-.22.337-.176.6.058.412-.11 1.028-.49 1.115-.53.242-1.197.264-1.747.389-.366.08-.732.16-1.099.242-.205.044-.46.154-.674.066-.506-.213-.894-1.1-1.474-.968-.71.154-1.42.315-2.126.469-.182.044-.402.05-.579.132-.402.088-.446.777-.79.99-.74.462-1.24-.066-1.826-.572-.476-.411-.909-.183-1.45-.066-.06.015-.113.028-.172.035l1.4 4.713c.272-.066.544-.123.816-.182.462-.102.791.33 1.15.646a402.54 402.54 0 0 1 2.031 1.75c.293.25.873.573.938 1.064.25 1.7.506 3.409.755 5.117.073.506.088 1.12.234 1.605.081.543.968 1.034 1.277 1.305.63.542 1.253 1.085 1.876 1.627.146.125.351.374.505.095.213-.381.191-.535-.095-.791-.579-.5-1.158-.997-1.738-1.503-.21-.183 0-.777.243-.828.161-.037.41.27.528.374l1.957 1.693c.418.359.85.586.945 1.246.118.792.088 1.605.653 2.089l.828.719c.263.227.616.065.901 0 .213-.044.838-.25 1.043-.103.184.118.345.286.514.433.66.564 1.14.993 1.8 1.565.205.175.4.34.605.517.271.234-.076.76-.2.989-.155.278-.492.704-.44 1.077 0 .272.087.572.123.836.125.872.257 1.752.39 2.624.08.594.938 1.063 1.29 1.37.336.287 1.128.719 1.21 1.284l.284 1.957c.242 1.649.485 3.298.726 4.948.052.352-.168.637-.322.9-.162.302-.168.536-.118.874.14.916.272 1.832.404 2.748.11.719.77 1.056 1.21 1.437.205.183.483.513.755.455.146 0 .322-.074.468-.103.205-.052.748-.044.902-.242.117-.147-.6-.674-.667-.733-.242-.213-.498-.374-.557-.77-.08-.542-.447-1.7-.169-2.206.748-1.35 1.503-2.698 2.25-4.054.345-.623-.256-1.407.067-1.986.374-.667.74-1.334 1.114-2.001.176-.315.454-.323.733-.39.381-.08.601-.138.828-.541.154-.28.41-.594.352-.961-.052-.373-.11-.74-.16-1.106-.068-.47-.14-.94-.206-1.408-.044-.293-.14-.638.007-.91.183-.321.36-.636.535-.96.175-.314.03-.798-.022-1.135-.052-.36-.052-.916-.242-1.217M31.98 22.307c-.174.04-.557.028-.671.234-.141.144-.248.447-.351.633-.144.258-.169.324.049.513.26.225.942.405 1.173-.012.185-.33.629-.777.284-1.076-.136-.117-.303-.333-.484-.292M44.996 32.844c.09-.105.098-.137.089-.173-.008-.036-.052-.019-.096.008a.483.483 0 0 1-.201.07c-.053 0-.115.037-.124.08-.005.024-.006.127.072.134.152.014.219-.07.26-.119"></path>
			<path d="M62.45 36.718c.318.382.16.888.085 1.308-.051.28.046.6.15.744.076.09.153.155.204.2l.386.332c.05.044.18.156.258.158.277.008.344-.305.188-.41a4.948 4.948 0 0 1-.694-.604c-.153-.173-.17-1.026-.02-1.11a.201.201 0 0 1 .205.033c.227.198.425.454.63.073.19-.337-.02-1.217-.335-1.488-.176-.22-.69-.38-.462-.784.169-.3.359-.85.68-.924.55-.124 1.123-.095 1.46-.696.41-.755.828-1.503 1.246-2.25.243-.44.228-1.628-.168-1.965l-1.605-1.385c-.345-.3.615-1.899.864-1.686.22.073.49.425.675.586.16.14.579.667.814.616.212-.044.549-.755.33-.938-.28-.242-.58-.396-.337-.836.16-.286.314-.682.519-.93.228-.404.712-.155.947-.58.263-.476.93-1.268.834-1.906-.065-.425-.124-.85-.19-1.275-.044-.33-.051-.894-.293-1.107-.227-.27-.58-.352-.644-.792-.081-.52 0-.755.234-1.18.153-.27.329-.769.63-.835.293-.066.587-.125.88-.19.542-.126 1.422-.089 1.766-.712.213-.374.36-.55.726-.63.433-.096.527-.052.608.491.059.388.125.69-.066 1.041-.168.3-.557.777-.498 1.18 0 .696.22 1.48.322 2.162.037.271.47.813.667.455.213-.374.418-.755.63-1.129.14-.264.426-.616.375-.968-.008-.3-.096-.638-.14-.93-.073-.485-.14-.96-.213-1.437-.044-.316-.146-.66.015-.946.198-.352.338-.55.682-.63.147-.03.347-.045.53-.096l-.54-2.763-3.307-1.176a.674.674 0 0 0-.245.01l-1.781.396-2.471.55c-.395.088-.843.278-1.246.278-.6.14-.974-1.055-1.605-.916-.69.154-1.378.315-2.068.47-.446.095-1.062.41-1.472.065-.293-.249-.594-.498-.887-.748-.221-.183-.535-.564-.83-.498-.578.008-3.1.47-3.356.931-.704 1.268-1.408 2.536-2.111 3.797-.271.498-1.32.476-1.737.572-.272.058-.543.117-.814.183-.294.066-.44.454-.587.733-.161.286-.307.66-.506.91-.161.285-.556.292-.805.343l-1.181.264c-.25.06-.638.06-.8.352-.461.557-.49 1.246-1.186 1.407-.352.074-.704.154-1.056.235-.345.074-.586-.227-.857-.454-.117-.103-.36-.257-.235-.492a.595.595 0 0 1 .374-.374c.095-.043.609-.036.46-.307-.093-.16-.292-.279-.416-.38-.25-.214-.484-.5-.806-.426-.301.066-.822.315-1.092.073-.272-.154-.411-.477-.748-.403-.366.08-.726.168-1.092.25-.52.116-.697.622-.976 1.135-.461.821-.916 1.642-1.37 2.463-.323.586-.491.858-.388 1.583l.175 1.18c.037.271.484.8.726.741.125-.018.242-.088.359-.08.227.04.295.211.52.22.265.006.748-.118.909-.397.184-.344.316-.579.25-.997-.052-.38-.454-.795-.454-1.176-.06-.389.293-.82.446-1.1.199-.359.66-.817 1.064-.766.523.067.714.383.47.854-.281.545-1.07.596-1.065 1.707.002.523.435.516.777.496.46-.028.519.192.454.706-.021.166-.141.37-.287.561-.222.267-.583.146-.852.365-.203.202-.003.38-.321.595-.158.107-.342.136-.46.163-.196.044-.503.08-.825.138a.415.415 0 0 1-.347-.131c-.032-.037-.031-.07-.016-.106a.709.709 0 0 0 .05-.179c.038-.264-.316-.564-.428-.459-.073.07-.244.347-.16.493.085.147.254.273.302.403.02.055-.004.125-.08.154-.298.112-.47.21-.592.43-.433.77-.077 1.38-.74 2.233-.13.166-.172.383-.323.586-.205.367.05.85.05 1.24.178 1.201-1.222.6-1.523 1.142-.227.235-.213.528-.161.85.022.184.058 1.085.198 1.173.249.17.374.404.667.338.293-.066.71-.044.887-.367.08-.139.213-.308.242-.484.036-.212-.103-.417.007-.623.19-.337.38-.682.572-1.026.212-.388.586-.213.85-.484.235-.235.286-.755.652-.44.3.257.6.521.902.777.066.052.205.264.373.748.052.143-.016.62.125.653.137.03.286-.484.323-.55.102-.183.022-.557.087-.653.044-.058.265-.014.228-.242-.007-.058-.264-.27-.264-.278 0-.007-.681-.594-.718-.623-.176-.154-.697-.433-.5-.784.265-.477.434-.257.749.014.286.25.572.491.85.741.278.241.398.644.345 1.026-.045.327.467 1.028.72.842.27-.162-.038-.923.248-1.157.19-.147.608-.286.542-.71-.022-.12-.074-.309-.044-.463.022-.154.146-.308.213-.433.109-.19.344-.85.52-.938.217-.1.63.5.872.06.109-.18.22-.55.579-.632.374-.08.49.052.799.315.22.191.52.345.572.697.044.322.132.982-.264 1.07-.242.147-.623.14-.894.198-.301.066-.447-.425-.74-.359-.242.051-.562.02-.66.315-.203.61-.52.687-.732 1.068-.118.22-.2.864-.024 1.011.315.271.793.047 1.15-.034.852-.19 1.255.872 1.138 1.54-.076.43-1.393.667-1.672.55-.322-.133-.446-.433-.82-.345-.294.066-.778.058-.968.403-.161.286-.33.748-.631.814-.285.065-.784.3-1.048.065-.257-.146-.498-.432-.733-.63-.33-.286-.176-.836-.505-1.122-.265-.227-.572-.087-.858-.02-.293.057-.747.057-.982.3-.242.234-.315.666-.55.901-.25.25-.712.241-1.011.308-.492.11-.997 1.231-.917 1.803.132.872-.285 1.341-.667 2.03-.271.484-.872 1.202-.777 1.84.117.814.235 1.62.36 2.434.08.571.952 1.055 1.29 1.348.314.272.623.535.93.806.199.17.425.44.682.39.483 0 1.342-.155 1.635-.675.19-.352.322-.645.68-.726.317-.066.712-.257.999-.007.483.432.872.667.974 1.407l.418 2.83c.066.454.066 1.65.425 1.957.19.241.49.344.667.608.14.213.146.543.183.8.14.96.287 1.927.425 2.887.11.726.199.997.697 1.43.425.366.975 1.1 1.525.974.688-.153 1.378-.308 2.066-.46.52-.119.858-1.123 1.137-1.62.153-.28.08-.566.036-.874l-.22-1.502c-.11-.74.462-1.4.778-1.98.138-.24.358-.527.307-.857-.066-.425-.125-.857-.19-1.283-.052-.344-.066-.652-.315-.872-.301-.257-.565-.425-.638-.902-.052-.344-.176-.762 0-1.077l.638-1.144c.16-.293.315-.718.623-.784.359-.08.564-.66.748-.99.19-.35.417-.637.35-1.084-.028-.162-.087-1.283-.233-1.327-.14-.037-.506.828-.572.945-.212.382-.513.39-.85.462-.543.125-1.275-.82-1.687-1.18-.19-.169-.454-.33-.505-.652-.06-.418-.124-.836-.183-1.254-.096-.652-1.056-1.165-1.452-1.503-.241-.212-.264-.513-.308-.85-.058-.359-.257-1.01-.073-1.356.184-.447.543-.33.71.088.155.367.155.894.214 1.29.117.8.799.916 1.209 1.437.528.454.088 1.693.63 2.155.228.205.484.521.756.631.249.102.762-.015.997-.162.198-.125.315-.425.432-.645.24-.432.484-.865.726-1.297.337-.609.805-1.159.564-1.95-.154-1.027-1.224-.367-1.678-.755a100.22 100.22 0 0 0-.887-.77c-.103-.095-.272-.227-.161-.425.036-.183.27-.513.43-.374.237.066.53.455.727.63.265.228.697.022.976-.036.285-.066.637-.227.894 0 .314.271.534.22.887.146l.974-.219c.308-.066.638.344.872.542.22.191.499.352.55.718.067.455.132.917.198 1.378.05.301.059.638.287.83.299.263.593.52.893.776.265.227.426.41.653.007.235-.433.154-.769.08-1.253-.11-.74.557-1.525.873-2.089.13-.242.256-.572.447-.763.213-.22.843-.366 1.077-.154.265.147.52.448.756.653.08.066.168.175.264.227.244.154.366.03.57.037.309.024.549.241.747.418.176.15.499.448.499.448"></path>
		</g>
		<path fill="#003E75" d="M97.541 30.881h10.706v33.205h9.016V30.881h9.867l2.853-8.439H97.541zM154.744 30.885l3.069-8.441h-23.844v41.64h23.122v-8.438h-14.162v-8.621h12.29v-8.378h-12.29v-7.762zM183.134 40.297a36.04 36.04 0 0 0-.403.65 13.675 13.675 0 0 1-.163-.262l-12.144-18.243h-7.932v41.644h8.957V39.802l8.771 13.294h5.09l8.17-13.166v24.156h8.96V22.442h-8.084l-11.222 17.855zM230.206 30.885l3.063-8.441h-23.84v41.64h23.118v-8.438h-14.16v-8.621h12.292v-8.378h-12.292v-7.762zM264.688 47.386l-.434-.58-18.211-24.364h-8.09v41.644h8.955V38.622c.088.115.177.231.271.35l18.824 25.114h7.644V22.442h-8.959v24.944zM336.243 39.234c-3.78-2.174-6.095-3.625-6.095-5.958 0-2.43 2.748-2.792 4.385-2.792 2.4 0 5.053.807 7.278 2.214l.15.095 2.907-7.994-1.07-.54c-2.76-1.394-5.952-2.1-9.491-2.1-7.755 0-13.171 4.783-13.171 11.633 0 3.16 1.05 5.9 3.105 8.12 1.96 2.177 4.616 3.696 6.959 5.036 3.767 2.156 6.077 3.603 6.077 6.133 0 2.616-3.313 3.309-5.067 3.309-3.65 0-6.304-1.798-7.032-2.35l-1.771-1.34-3.02 8.305.252.169c3.474 2.345 7.314 3.484 11.743 3.484 8.225 0 14.193-5.085 14.193-12.09 0-7.386-5.73-10.685-10.332-13.334M298.09 56.264c-6.976 0-11.309-4.915-11.309-12.827 0-7.91 4.333-12.826 11.308-12.826 6.978 0 11.313 4.915 11.313 12.826 0 7.912-4.335 12.827-11.313 12.827m0-34.158c-5.717 0-10.965 2.12-14.777 5.966l-.023.025c-3.75 3.921-5.817 9.39-5.817 15.4 0 6.385 2.296 12.045 6.47 15.941 3.7 3.416 8.591 5.22 14.147 5.22 5.754 0 10.798-1.957 14.598-5.67 3.922-3.902 6.08-9.445 6.08-15.606 0-5.733-1.797-10.816-5.199-14.71-3.738-4.234-9.233-6.566-15.479-6.566"></path>
	</g>
</svg>