<svg width="40" height="40" viewBox="0 0 40 40" fill="none" xmlns="http://www.w3.org/2000/svg">
<circle cx="20" cy="20" r="20" fill="white"/>
<rect width="24" height="24" transform="translate(8 8)" fill="white"/>
<path d="M16.9546 30C15.8889 29.9977 14.825 29.9115 13.7724 29.7423C12.248 29.4398 10.78 28.8945 9.42241 28.1266L8 27.3336L9.5401 26.8177C11.223 26.2544 12.2459 25.9058 13.5093 25.3576C12.8662 25.0387 12.2934 24.5903 11.8256 24.0396C11.3577 23.4888 11.0046 22.8471 10.7875 22.1533L10.4292 21.0464L10.7229 21.0926C10.4738 20.8358 10.2501 20.5548 10.055 20.2534C9.45688 19.3499 9.15589 18.2765 9.19533 17.1878L9.26307 16.2217L9.83034 16.4525C9.59215 15.9888 9.4214 15.4922 9.32344 14.9785C9.08037 13.6932 9.28744 12.3617 9.90866 11.2156L10.4046 10.2927L11.0668 11.1007C13.0288 13.5846 15.8554 15.2041 18.9596 15.6226C18.8054 14.6927 18.9328 13.7371 19.3249 12.8827C19.7171 12.0283 20.3554 11.3157 21.1551 10.8394C22.1564 10.2241 23.3187 9.93546 24.4859 10.0121C25.6969 10.0755 26.85 10.5593 27.7529 11.3831C28.1584 11.2704 28.5575 11.1347 28.9482 10.9767C29.2113 10.8763 29.5084 10.7613 29.8804 10.6305L31.247 10.1468L30.3522 12.7462C30.4122 12.7462 30.4723 12.7369 30.5358 12.7346L32 12.6665L31.1347 13.8704C31.0847 13.9393 31.0723 13.9593 31.0553 13.9859C30.985 14.0933 30.8988 14.226 29.7103 15.8408C29.4056 16.2702 29.258 16.7945 29.2929 17.323C29.4231 19.2363 29.1668 21.1564 28.5399 22.965C27.9919 24.4855 27.0887 25.8473 25.908 26.933C24.3416 28.3239 22.4383 29.2632 20.3953 29.6536C19.2626 29.888 18.1093 30.004 16.9534 29.9999L16.9546 30Z" fill="#293276"/>
</svg>
