<svg width="104" height="104" viewBox="0 0 104 104" fill="none" xmlns="http://www.w3.org/2000/svg">
<g filter="url(#filter0_d)">
<path d="M50.2666 18.9688V79.7799C58.3307 79.7799 66.0644 76.5764 71.7666 70.8743C77.4687 65.1721 80.6722 57.4384 80.6722 49.3743C80.6722 41.3103 77.4687 33.5765 71.7666 27.8743C66.0644 22.1722 58.3307 18.9688 50.2666 18.9688Z" fill="#88CCED"/>
<path d="M50.0845 23.3633V75.5482C57.0046 75.5482 63.6413 72.7992 68.5346 67.9059C73.4279 63.0126 76.1769 56.3759 76.1769 49.4557C76.1769 42.5356 73.4279 35.8989 68.5346 31.0056C63.6413 26.1123 57.0046 23.3633 50.0845 23.3633Z" fill="#5ABBE8"/>
<path d="M50.4083 30.5013C39.843 30.5013 31.2781 39.0662 31.2781 49.6315C31.2781 60.1968 39.843 68.7617 50.4083 68.7617C60.9737 68.7617 69.5386 60.1968 69.5386 49.6315C69.5386 39.0662 60.9737 30.5013 50.4083 30.5013Z" fill="url(#paint0_linear)"/>
<path d="M41.3254 49.7867L47.9698 57.4885C48.0628 57.5955 48.1778 57.6811 48.3069 57.7394C48.4361 57.7978 48.5763 57.8275 48.718 57.8265H48.7614C48.9119 57.8174 49.0582 57.7731 49.1886 57.6974C49.319 57.6217 49.4299 57.5165 49.5125 57.3903L58.9129 43.0238C58.9882 42.9177 59.0413 42.7975 59.0691 42.6704C59.0968 42.5433 59.0987 42.412 59.0745 42.2841C59.0504 42.1563 59.0007 42.0346 58.9284 41.9265C58.8562 41.8183 58.7629 41.7257 58.6541 41.6544C58.5453 41.5831 58.4232 41.5345 58.2952 41.5114C58.1671 41.4884 58.0358 41.4913 57.9089 41.5202C57.782 41.5491 57.6623 41.6032 57.5569 41.6794C57.4514 41.7556 57.3624 41.8523 57.2951 41.9636L48.5967 55.2525L42.79 48.533C42.7068 48.4363 42.6052 48.3572 42.4912 48.3001C42.3771 48.2431 42.2528 48.2093 42.1256 48.2007H42.0534C41.8229 48.1999 41.6 48.2831 41.4265 48.4347C41.3297 48.5173 41.2503 48.6181 41.1928 48.7315C41.1353 48.8449 41.1009 48.9686 41.0915 49.0954C41.0821 49.2222 41.0979 49.3496 41.1381 49.4703C41.1782 49.5909 41.2419 49.7024 41.3254 49.7983V49.7867Z" fill="#003E75"/>
<path d="M50.2982 76.6659C46.7235 76.6756 43.1824 75.9761 39.8798 74.6079C36.5772 73.2398 33.5789 71.2302 31.0582 68.6955C30.9806 68.6179 30.9191 68.5258 30.8771 68.4244C30.8351 68.3231 30.8135 68.2144 30.8135 68.1047C30.8135 67.995 30.8351 67.8863 30.8771 67.785C30.9191 67.6836 30.9806 67.5915 31.0582 67.5139C31.1358 67.4363 31.2279 67.3748 31.3292 67.3328C31.4306 67.2908 31.5392 67.2692 31.649 67.2692C31.7587 67.2692 31.8673 67.2908 31.9687 67.3328C32.0701 67.3748 32.1622 67.4363 32.2397 67.5139C37.0384 72.2543 43.5178 74.9034 50.263 74.8827C57.0082 74.8621 63.4712 72.1734 68.2408 67.4039C73.0104 62.6343 75.699 56.1712 75.7197 49.426C75.7403 42.6808 73.0912 36.2015 68.3509 31.4028C68.2733 31.3252 68.2117 31.2331 68.1697 31.1318C68.1278 31.0304 68.1061 30.9218 68.1061 30.812C68.1061 30.7023 68.1278 30.5937 68.1697 30.4923C68.2117 30.391 68.2733 30.2989 68.3509 30.2213C68.4284 30.1437 68.5205 30.0821 68.6219 30.0402C68.7233 29.9982 68.8319 29.9766 68.9416 29.9766C69.0513 29.9766 69.16 29.9982 69.2614 30.0402C69.3627 30.0821 69.4548 30.1437 69.5324 30.2213C73.3364 34.0262 75.9268 38.8738 76.9759 44.1508C78.025 49.4279 77.4858 54.8976 75.4264 59.8683C73.367 64.8389 69.88 69.0873 65.4062 72.0762C60.9324 75.0651 55.6728 76.6603 50.2924 76.6601L50.2982 76.6659Z" fill="white"/>
<path d="M66.1557 34.4259C65.9388 34.4212 65.732 34.3333 65.578 34.1804C65.5003 34.1028 65.4387 34.0108 65.3967 33.9094C65.3546 33.808 65.333 33.6994 65.333 33.5896C65.333 33.4799 65.3546 33.3712 65.3967 33.2698C65.4387 33.1685 65.5003 33.0764 65.578 32.9988L71.5782 26.9986C71.6558 26.921 71.7479 26.8595 71.8492 26.8175C71.9506 26.7755 72.0593 26.7539 72.169 26.7539C72.2787 26.7539 72.3873 26.7755 72.4887 26.8175C72.5901 26.8595 72.6822 26.921 72.7597 26.9986C72.8373 27.0762 72.8989 27.1683 72.9409 27.2697C72.9828 27.371 73.0045 27.4797 73.0045 27.5894C73.0045 27.6991 72.9828 27.8078 72.9409 27.9091C72.8989 28.0105 72.8373 28.1026 72.7597 28.1802L66.7595 34.1804C66.6805 34.2597 66.5863 34.3223 66.4826 34.3645C66.3789 34.4067 66.2677 34.4276 66.1557 34.4259Z" fill="white"/>
<path d="M28.4267 72.1649C28.2629 72.1615 28.1037 72.1101 27.9688 72.0171C27.8339 71.9241 27.7292 71.7936 27.6677 71.6417C27.6062 71.4898 27.5906 71.3232 27.6228 71.1626C27.655 71.0019 27.7337 70.8542 27.849 70.7378L34.0081 64.5787C34.0857 64.5011 34.1778 64.4396 34.2791 64.3976C34.3805 64.3556 34.4891 64.334 34.5988 64.334C34.7086 64.334 34.8172 64.3556 34.9186 64.3976C35.0199 64.4396 35.112 64.5011 35.1896 64.5787C35.2672 64.6563 35.3288 64.7484 35.3707 64.8497C35.4127 64.9511 35.4343 65.0598 35.4343 65.1695C35.4343 65.2792 35.4127 65.3878 35.3707 65.4892C35.3288 65.5906 35.2672 65.6827 35.1896 65.7602L29.019 71.9338C28.8599 72.0862 28.647 72.1693 28.4267 72.1649Z" fill="white"/>
<path d="M50.2981 69.8726C46.26 69.8731 42.3124 68.6762 38.9546 66.4331C35.5968 64.19 32.9796 61.0015 31.434 57.2709C29.8884 53.5403 29.4839 49.4351 30.2715 45.4746C31.0592 41.514 33.0037 37.876 35.859 35.0207C38.7144 32.1653 42.3524 30.2208 46.313 29.4332C50.2735 28.6455 54.3787 29.0501 58.1093 30.5956C61.8399 32.1412 65.0284 34.7584 67.2715 38.1162C69.5146 41.474 70.7115 45.4216 70.711 49.4597C70.7048 54.8716 68.5522 60.0602 64.7254 63.887C60.8986 67.7138 55.71 69.8665 50.2981 69.8726ZM50.2981 30.7137C46.5905 30.7137 42.9661 31.8131 39.8834 33.873C36.8006 35.9328 34.3979 38.8605 32.979 42.2859C31.5602 45.7113 31.189 49.4805 31.9123 53.1168C32.6356 56.7532 34.421 60.0934 37.0426 62.7151C39.6643 65.3368 43.0045 67.1222 46.6409 67.8455C50.2773 68.5688 54.0465 68.1976 57.4718 66.7787C60.8972 65.3599 63.825 62.9572 65.8848 59.8744C67.9446 56.7916 69.0441 53.1673 69.0441 49.4597C69.0357 44.4905 67.0579 39.7273 63.5442 36.2135C60.0305 32.6998 55.2672 30.7221 50.2981 30.7137Z" fill="white"/>
<path d="M50.2987 85.0325C50.1888 85.0329 50.08 85.0116 49.9783 84.9698C49.8767 84.928 49.7843 84.8666 49.7065 84.789C49.6287 84.7114 49.5669 84.6193 49.5248 84.5178C49.4826 84.4163 49.4609 84.3075 49.4609 84.1976V75.8199C49.4735 75.6065 49.5671 75.4061 49.7225 75.2595C49.878 75.1129 50.0836 75.0312 50.2973 75.0313C50.5109 75.0312 50.7166 75.1129 50.872 75.2595C51.0275 75.4061 51.1211 75.6065 51.1336 75.8199V84.1976C51.1336 84.4191 51.0456 84.6314 50.8891 84.788C50.7325 84.9446 50.5201 85.0325 50.2987 85.0325Z" fill="white"/>
<path d="M59.4566 85.0311H41.1381C40.9167 85.0311 40.7043 84.9431 40.5478 84.7866C40.3912 84.63 40.3032 84.4176 40.3032 84.1962C40.3032 83.9748 40.3912 83.7624 40.5478 83.6059C40.7043 83.4493 40.9167 83.3613 41.1381 83.3613H59.4566C59.678 83.3613 59.8903 83.4493 60.0469 83.6059C60.2035 83.7624 60.2914 83.9748 60.2914 84.1962C60.2914 84.4176 60.2035 84.63 60.0469 84.7866C59.8903 84.9431 59.678 85.0311 59.4566 85.0311Z" fill="white"/>
<path d="M28.2186 64.5198C28.0779 64.5204 27.9394 64.4852 27.8161 64.4174C27.6928 64.3497 27.5887 64.2517 27.5137 64.1327C24.2697 58.9893 22.8421 52.9074 23.4586 46.8578C24.0752 40.8082 26.7004 35.1394 30.9154 30.7562C35.1304 26.373 40.6921 23.528 46.713 22.6752C52.7339 21.8224 58.8669 23.011 64.1333 26.0513C64.2281 26.1064 64.3112 26.1795 64.3778 26.2666C64.4443 26.3537 64.4931 26.4531 64.5213 26.5591C64.5494 26.665 64.5565 26.7755 64.5419 26.8842C64.5274 26.9929 64.4916 27.0976 64.4366 27.1925C64.3816 27.2873 64.3085 27.3704 64.2213 27.437C64.1342 27.5035 64.0348 27.5523 63.9289 27.5805C63.8229 27.6086 63.7124 27.6156 63.6038 27.6011C63.4951 27.5866 63.3903 27.5508 63.2955 27.4958C58.3521 24.6425 52.5955 23.5271 46.9442 24.3275C41.2929 25.128 36.0724 27.7981 32.1158 31.912C28.1593 36.0258 25.6945 41.3463 25.1148 47.0245C24.5352 52.7028 25.874 58.4116 28.9177 63.24C28.977 63.3327 29.0174 63.4362 29.0365 63.5445C29.0557 63.6528 29.0533 63.7639 29.0294 63.8713C29.0055 63.9786 28.9606 64.0802 28.8973 64.1702C28.834 64.2602 28.7536 64.3368 28.6606 64.3956C28.5276 64.4771 28.3746 64.5201 28.2186 64.5198Z" fill="white"/>
<path d="M59.6006 29.3995L59.1182 27.6662L63.1626 26.5367L62.0331 22.4922L63.7664 22.0098L65.1386 26.9209C65.1691 27.0351 65.1768 27.1542 65.1613 27.2713C65.1457 27.3885 65.1071 27.5015 65.0478 27.6037C64.9885 27.7059 64.9096 27.7955 64.8156 27.8672C64.7217 27.9389 64.6145 27.9913 64.5002 28.0215L59.6006 29.3995Z" fill="white"/>
</g>
<defs>
<filter id="filter0_d" x="-4" y="-2" width="112" height="112" filterUnits="userSpaceOnUse" color-interpolation-filters="sRGB">
<feFlood flood-opacity="0" result="BackgroundImageFix"/>
<feColorMatrix in="SourceAlpha" type="matrix" values="0 0 0 0 0 0 0 0 0 0 0 0 0 0 0 0 0 0 127 0"/>
<feOffset dy="2"/>
<feGaussianBlur stdDeviation="2"/>
<feColorMatrix type="matrix" values="0 0 0 0 0.0980392 0 0 0 0 0.223529 0 0 0 0 0.34902 0 0 0 0.22 0"/>
<feBlend mode="normal" in2="BackgroundImageFix" result="effect1_dropShadow"/>
<feBlend mode="normal" in="SourceGraphic" in2="effect1_dropShadow" result="shape"/>
</filter>
<linearGradient id="paint0_linear" x1="67.5554" y1="-90.8312" x2="33.4749" y2="-90.8312" gradientUnits="userSpaceOnUse">
<stop stop-color="#D7EEF8"/>
<stop offset="1" stop-color="#FDDCCE"/>
</linearGradient>
</defs>
</svg>
