<svg width="104" height="104" viewBox="0 0 104 104" fill="none" xmlns="http://www.w3.org/2000/svg">
<g filter="url(#filter0_d)">
<path d="M52.7513 81.6141C60.3544 76.993 66.8346 70.7387 71.7226 63.3043C82.9517 46.1126 81.6662 28.2679 81.0133 22.5508C75.8512 25.2931 70.0792 26.6844 64.2346 26.5952C59.7632 26.5068 55.3522 25.546 51.249 23.767C50.9871 24.8879 50.7223 26.0069 50.4546 27.1239V82.1428L52.7513 81.6141Z" fill="#82CDEE"/>
<path d="M23.689 28.36C23.6093 34.0455 24.2775 39.7169 25.6765 45.2282C27.1962 50.9291 29.4215 56.418 32.3008 61.5677C34.3952 65.3493 36.5965 69.2666 40.6785 73.4931C43.5878 76.487 46.8901 79.0721 50.495 81.1775C53.7806 79.049 56.8302 76.5766 59.5921 73.8022C63.0072 70.3121 65.9738 66.41 68.4234 62.186C71.1892 57.3868 73.3253 52.2515 74.779 46.9066C76.439 40.8676 77.2432 34.6254 77.1681 28.3629C72.9423 29.9944 68.4433 30.8024 63.9139 30.7433C59.2981 30.6812 54.7385 29.7216 50.4892 27.918C46.1428 29.8162 41.4549 30.808 36.7121 30.8329C32.2528 30.8495 27.8318 30.01 23.689 28.36Z" fill="url(#paint0_linear)"/>
<path d="M36.9143 47.1947C38.071 47.1947 39.0087 46.257 39.0087 45.1003C39.0087 43.9436 38.071 43.0059 36.9143 43.0059C35.7575 43.0059 34.8198 43.9436 34.8198 45.1003C34.8198 46.257 35.7575 47.1947 36.9143 47.1947Z" fill="white"/>
<path d="M50.4314 47.1947C51.5881 47.1947 52.5258 46.257 52.5258 45.1003C52.5258 43.9436 51.5881 43.0059 50.4314 43.0059C49.2746 43.0059 48.3369 43.9436 48.3369 45.1003C48.3369 46.257 49.2746 47.1947 50.4314 47.1947Z" fill="white"/>
<path d="M63.9514 47.1947C65.1081 47.1947 66.0458 46.257 66.0458 45.1003C66.0458 43.9436 65.1081 43.0059 63.9514 43.0059C62.7946 43.0059 61.8569 43.9436 61.8569 45.1003C61.8569 46.257 62.7946 47.1947 63.9514 47.1947Z" fill="white"/>
<path d="M44.1076 44.2004H40.352C40.1744 43.5599 39.8215 42.9818 39.333 42.5312C38.8445 42.0806 38.2398 41.7754 37.5871 41.65C36.9344 41.5246 36.2597 41.584 35.639 41.8215C35.0183 42.059 34.4762 42.4652 34.074 42.9942C33.6717 43.5233 33.4252 44.1541 33.3622 44.8158C33.2993 45.4774 33.4224 46.1434 33.7177 46.7388C34.0129 47.3342 34.4686 47.8353 35.0334 48.1857C35.5982 48.536 36.2496 48.7215 36.9142 48.7215C37.6819 48.7243 38.4298 48.4777 39.0451 48.0186C39.6605 47.5596 40.11 46.9131 40.326 46.1764H43.1282V57.2957C43.1282 57.5555 43.2314 57.8046 43.4151 57.9882C43.5987 58.1719 43.8478 58.2751 44.1076 58.2751C44.3673 58.2751 44.6164 58.1719 44.8001 57.9882C44.9837 57.8046 45.0869 57.5555 45.0869 57.2957V45.1884C45.0869 44.9278 44.984 44.6778 44.8006 44.4928C44.6172 44.3078 44.3681 44.2027 44.1076 44.2004ZM36.9142 46.7484C36.5988 46.7484 36.2905 46.6549 36.0283 46.4796C35.7661 46.3044 35.5617 46.0554 35.441 45.764C35.3203 45.4726 35.2887 45.1519 35.3502 44.8426C35.4117 44.5333 35.5636 44.2491 35.7866 44.0261C36.0097 43.8031 36.2938 43.6512 36.6031 43.5897C36.9125 43.5282 37.2331 43.5597 37.5245 43.6804C37.8159 43.8011 38.0649 44.0055 38.2402 44.2678C38.4154 44.53 38.5089 44.8383 38.5089 45.1537C38.5051 45.5744 38.3355 45.9766 38.0369 46.273C37.7384 46.5694 37.3349 46.7361 36.9142 46.7368V46.7484Z" fill="#003E75"/>
<path d="M50.4721 41.5302C49.5261 41.531 48.619 41.9071 47.9501 42.5761C47.2812 43.245 46.9051 44.152 46.9043 45.098C46.9046 45.8768 47.156 46.6347 47.6213 47.2592C48.0866 47.8837 48.7408 48.3415 49.487 48.5647V63.8556C49.487 64.1153 49.5901 64.3644 49.7738 64.5481C49.9575 64.7317 50.2066 64.8349 50.4663 64.8349C50.726 64.8349 50.9751 64.7317 51.1588 64.5481C51.3425 64.3644 51.4456 64.1153 51.4456 63.8556V48.5213C52.2701 48.2819 52.9807 47.7532 53.4468 47.0322C53.9129 46.3111 54.1034 45.4462 53.9833 44.5961C53.8633 43.7459 53.4406 42.9676 52.793 42.4039C52.1454 41.8403 51.3162 41.529 50.4576 41.5273L50.4721 41.5302ZM52.0667 45.098C52.0681 45.5071 51.9125 45.9012 51.6319 46.199C51.3513 46.4967 50.9672 46.6755 50.5587 46.6985H50.4721H50.4201C50.107 46.6882 49.8038 46.586 49.5484 46.4046C49.2931 46.2231 49.0968 45.9705 48.9841 45.6782C48.8715 45.3859 48.8474 45.0669 48.9149 44.761C48.9824 44.4551 49.1385 44.1758 49.3637 43.9581C49.589 43.7404 49.8734 43.5938 50.1814 43.5367C50.4894 43.4796 50.8074 43.5145 51.0957 43.637C51.384 43.7595 51.6299 43.9642 51.8026 44.2256C51.9753 44.487 52.0671 44.7934 52.0667 45.1067V45.098Z" fill="#003E75"/>
<path d="M60.6148 44.1217H56.8361C56.7039 44.1219 56.5731 44.1489 56.4516 44.201C56.33 44.253 56.2202 44.329 56.1288 44.4245C56.0373 44.52 55.9661 44.633 55.9194 44.7567C55.8726 44.8804 55.8513 45.0122 55.8568 45.1443V57.2777C55.8568 57.5374 55.96 57.7865 56.1436 57.9702C56.3273 58.1538 56.5764 58.257 56.8361 58.257C57.0959 58.257 57.345 58.1538 57.5286 57.9702C57.7123 57.7865 57.8155 57.5374 57.8155 57.2777V46.0948H60.5888C60.8157 46.9274 61.3358 47.65 62.0534 48.1295C62.7709 48.609 63.6375 48.8131 64.4936 48.7043C65.3497 48.5955 66.1376 48.181 66.7123 47.5372C67.287 46.8934 67.6098 46.0636 67.6212 45.2007C67.6325 44.3378 67.3318 43.4998 66.7742 42.8411C66.2167 42.1824 65.4399 41.7473 64.587 41.6159C63.734 41.4846 62.8624 41.6658 62.1325 42.1262C61.4026 42.5867 60.8636 43.2953 60.6148 44.1217ZM62.4348 45.1414C62.4348 44.8261 62.5283 44.5177 62.7035 44.2555C62.8788 43.9933 63.1278 43.7889 63.4192 43.6682C63.7106 43.5475 64.0312 43.5159 64.3406 43.5774C64.6499 43.639 64.934 43.7908 65.157 44.0138C65.3801 44.2369 65.5319 44.521 65.5935 44.8303C65.655 45.1397 65.6234 45.4603 65.5027 45.7517C65.382 46.0431 65.1776 46.2921 64.9154 46.4674C64.6532 46.6426 64.3448 46.7361 64.0295 46.7361C63.6065 46.7361 63.2009 46.5681 62.9019 46.269C62.6028 45.97 62.4348 45.5644 62.4348 45.1414Z" fill="#003E75"/>
<path d="M78.3521 28.0216C78.3521 27.9725 78.3348 27.9205 78.3204 27.8482C78.3123 27.8091 78.3017 27.7705 78.2886 27.7327L78.2713 27.6749C78.2086 27.5662 78.1371 27.4628 78.0575 27.3658C78.0104 27.3223 77.9591 27.2836 77.9044 27.2502C77.8574 27.2131 77.806 27.182 77.7513 27.1578C77.6832 27.1323 77.6124 27.1149 77.5404 27.1058C77.4902 27.0883 77.4375 27.0795 77.3844 27.0798H77.3353C77.2147 27.0823 77.0959 27.1088 76.9857 27.1578C73.0914 28.8277 68.9149 29.7414 64.679 29.8502C59.9269 29.9607 55.2072 29.0412 50.8441 27.1549L50.4599 26.9902L50.0757 27.1549C45.7116 29.0343 40.9941 29.9526 36.2437 29.8473C32.0118 29.7371 27.8393 28.8234 23.9486 27.1549C23.8373 27.1062 23.7176 27.0797 23.5962 27.0769H23.5499C23.4901 27.078 23.4308 27.0878 23.3737 27.1058C23.3095 27.1151 23.2465 27.1316 23.1859 27.1549C23.1186 27.1851 23.0555 27.2239 22.9982 27.2705C22.9532 27.2974 22.9115 27.3293 22.8739 27.3658C22.8204 27.4227 22.7739 27.4857 22.7353 27.5536L22.6862 27.6287L22.6428 27.7413C22.6428 27.7847 22.6226 27.8309 22.611 27.8945C22.6017 27.9334 22.5949 27.973 22.5908 28.0129V28.062C23.0213 46.1436 29.0937 62.3676 39.6815 73.7469C42.6824 76.988 46.1414 79.7726 49.9486 82.012L50.0093 82.0727H50.0613C50.1578 82.1136 50.2602 82.1389 50.3646 82.1478C50.4 82.1594 50.4371 82.1652 50.4744 82.1651H50.5466C50.6639 82.157 50.779 82.1297 50.8875 82.0842H50.9424L51.003 82.0236C54.8085 79.784 58.2656 76.9995 61.2644 73.7585C71.8579 62.3791 77.9275 46.1551 78.3579 28.0678L78.3521 28.0216ZM76.3501 29.5238C75.9168 39.5858 73.155 58.1238 59.8286 72.4411C57.0797 75.4064 53.9302 77.9734 50.4715 80.0678C47.0127 77.9734 43.8633 75.4064 41.1144 72.4411C27.7879 58.1065 25.0262 39.5771 24.5928 29.5122C28.3072 30.9285 32.2351 31.7041 36.209 31.806C41.0911 31.9115 45.9416 30.9985 50.4513 29.1251L50.5148 29.1425C55.0125 31.0174 59.8538 31.9268 64.7253 31.8118C68.7024 31.7087 72.6333 30.9311 76.3501 29.5122V29.5238Z" fill="white"/>
</g>
<defs>
<filter id="filter0_d" x="-4" y="-2" width="112" height="112" filterUnits="userSpaceOnUse" color-interpolation-filters="sRGB">
<feFlood flood-opacity="0" result="BackgroundImageFix"/>
<feColorMatrix in="SourceAlpha" type="matrix" values="0 0 0 0 0 0 0 0 0 0 0 0 0 0 0 0 0 0 127 0"/>
<feOffset dy="2"/>
<feGaussianBlur stdDeviation="2"/>
<feColorMatrix type="matrix" values="0 0 0 0 0.0980392 0 0 0 0 0.223529 0 0 0 0 0.34902 0 0 0 0.22 0"/>
<feBlend mode="normal" in2="BackgroundImageFix" result="effect1_dropShadow"/>
<feBlend mode="normal" in="SourceGraphic" in2="effect1_dropShadow" result="shape"/>
</filter>
<linearGradient id="paint0_linear" x1="26.4552" y1="250.075" x2="74.1017" y2="250.075" gradientUnits="userSpaceOnUse">
<stop stop-color="#FDDCCE"/>
<stop offset="1" stop-color="#D7EEF8"/>
</linearGradient>
</defs>
</svg>
