<svg width="104" height="104" viewBox="0 0 104 104" fill="none" xmlns="http://www.w3.org/2000/svg">
<g filter="url(#filter0_d)">
<path d="M61.4727 61.8026L62.7178 60.5719L62.8969 60.751C62.9116 60.6836 62.9203 60.6149 62.9229 60.5459C62.9298 60.3032 62.8702 60.0632 62.7506 59.8519C62.6309 59.6406 62.4557 59.466 62.244 59.347L61.0163 58.645L61.7096 57.4057C62.1209 56.6658 62.4447 55.8805 62.6745 55.0657L62.9634 54.0142H66.0227V50.143H62.9778L62.6889 49.0915C62.4597 48.2765 62.1359 47.4912 61.724 46.7515L61.1896 45.7982L63.3505 43.6373L60.6205 40.9102L58.4625 43.071L57.5091 42.5366C56.7689 42.126 55.9837 41.8022 55.1691 41.5717L54.1176 41.2828V38.2148H50.2436V41.2742L49.192 41.563C48.3772 41.7928 47.592 42.1166 46.852 42.5279L45.8987 43.0624L43.7407 40.9015L43.3969 41.2453L43.6512 41.4995L42.6256 42.5424L39.0376 38.9544L39.0578 38.9399L41.1638 36.8368C41.7448 36.2613 42.502 35.8973 43.3143 35.803C44.1267 35.7088 44.9471 35.8897 45.6445 36.3168C45.8342 35.5184 46.2875 34.8073 46.9312 34.2983C47.5749 33.7894 48.3714 33.5122 49.192 33.5117H55.1547C55.9735 33.5112 56.7686 33.7866 57.4117 34.2935C58.0549 34.8003 58.5085 35.509 58.6994 36.3053C59.2737 35.9552 59.9334 35.7703 60.606 35.7708C61.0847 35.7691 61.559 35.8625 62.0013 36.0455C62.4437 36.2285 62.8453 36.4975 63.1829 36.8368L67.4007 41.0546C67.9792 41.6342 68.3458 42.3916 68.4417 43.2048C68.5376 44.018 68.3571 44.8399 67.9294 45.5382C68.7262 45.7285 69.4355 46.1819 69.9429 46.825C70.4503 47.4682 70.7261 48.2636 70.7258 49.0828V55.0455C70.7245 55.8639 70.448 56.6582 69.9408 57.3005C69.4336 57.9429 68.7252 58.3961 67.9294 58.5873C68.3569 59.2861 68.5372 60.1083 68.4413 60.922C68.3454 61.7356 67.9789 62.4934 67.4007 63.0737L65.0896 65.3848L61.4727 61.8026Z" fill="#82CDEE"/>
<path d="M69.2814 49.0913C69.2818 48.8024 69.2252 48.5162 69.1149 48.2492C69.0046 47.9821 68.8427 47.7394 68.6385 47.5349C68.4343 47.3305 68.1918 47.1683 67.9249 47.0576C67.658 46.947 67.3719 46.89 67.0829 46.89H65.3496C65.2861 46.7282 65.2196 46.5693 65.1503 46.4105L66.3665 45.1942C66.7788 44.7815 67.0103 44.222 67.0103 43.6386C67.0103 43.0552 66.7788 42.4957 66.3665 42.0829L62.1516 37.8651C61.7381 37.4543 61.1789 37.2237 60.5959 37.2237C60.013 37.2237 59.4538 37.4543 59.0403 37.8651L57.824 39.0842C57.6652 39.0149 57.5034 38.9485 57.3416 38.8849V37.1516C57.3416 36.5685 57.11 36.0093 56.6977 35.597C56.2854 35.1847 55.7262 34.9531 55.1432 34.9531H49.192C48.6099 34.9562 48.0525 35.1888 47.6409 35.6004C47.2292 36.012 46.9966 36.5694 46.9936 37.1516V38.8849C46.8318 38.9485 46.67 39.0149 46.5112 39.0842L45.2949 37.8651C44.8814 37.4543 44.3222 37.2237 43.7393 37.2237C43.1563 37.2237 42.5971 37.4543 42.1836 37.8651L40.0747 39.974L40.04 40.0116L41.5769 41.5485L41.6145 41.5109L41.3545 41.2538L43.4634 39.1449C43.537 39.0715 43.6367 39.0303 43.7407 39.0303C43.8447 39.0303 43.9444 39.0715 44.018 39.1449L46.1472 41.2769C46.9858 40.8105 47.8757 40.4431 48.7992 40.182V37.1631C48.8021 37.0598 48.8444 36.9616 48.9175 36.8885C48.9905 36.8155 49.0888 36.7731 49.192 36.7702H55.1547C55.2589 36.7702 55.3588 36.8116 55.4325 36.8853C55.5062 36.959 55.5476 37.0589 55.5476 37.1631V40.182C56.471 40.4431 57.361 40.8105 58.1996 41.2769L60.3316 39.1449C60.3678 39.1087 60.4108 39.0799 60.4582 39.0603C60.5055 39.0407 60.5562 39.0306 60.6075 39.0306C60.6587 39.0306 60.7095 39.0407 60.7568 39.0603C60.8042 39.0799 60.8472 39.1087 60.8834 39.1449L65.1012 43.3627C65.1374 43.3989 65.1662 43.4419 65.1858 43.4892C65.2054 43.5366 65.2155 43.5873 65.2155 43.6386C65.2155 43.6898 65.2054 43.7406 65.1858 43.7879C65.1662 43.8352 65.1374 43.8782 65.1012 43.9145L62.9778 46.0465C63.4443 46.8851 63.8117 47.775 64.0727 48.6985H67.0916C67.1431 48.6985 67.194 48.7086 67.2415 48.7284C67.289 48.7482 67.3322 48.7772 67.3684 48.8137C67.4047 48.8502 67.4333 48.8936 67.4528 48.9412C67.4722 48.9889 67.482 49.0399 67.4816 49.0913V55.054C67.4787 55.1573 67.4364 55.2555 67.3633 55.3286C67.2903 55.4017 67.192 55.444 67.0887 55.4469H64.064C63.8063 56.3692 63.4417 57.2582 62.9778 58.096C63.4142 58.3474 63.7746 58.7121 64.0207 59.1514C64.2668 59.5908 64.3896 60.0886 64.376 60.592C64.3471 61.0588 64.2073 61.512 63.9681 61.914C63.729 62.3159 63.3974 62.655 63.0009 62.9031L62.7121 62.6142L62.6774 62.6518L64.2345 64.2089L64.272 64.1714L66.3781 62.0653C66.7903 61.6526 67.0219 61.0931 67.0219 60.5097C67.0219 59.9263 66.7903 59.3668 66.3781 58.954L65.1618 57.7378C65.2312 57.5789 65.2976 57.4171 65.3612 57.2554H67.0945C67.6766 57.2523 68.234 57.0197 68.6457 56.6081C69.0573 56.1965 69.2899 55.639 69.2929 55.0569L69.2814 49.0913Z" fill="#88CCED"/>
<path d="M67.3287 55.213V49.0395H63.8967C63.6069 47.9097 63.1575 46.827 62.5621 45.8241L64.9916 43.3946L60.6265 39.0295L58.1969 41.459C57.1934 40.8648 56.1109 40.4154 54.9816 40.1243V36.6895H48.8225V40.1215C47.7019 40.4381 46.6226 40.8861 45.6072 41.4561L43.1776 39.0266L38.7981 43.3946L41.2276 45.8241C40.6334 46.8276 40.184 47.9101 39.8929 49.0395H36.4609V55.213H39.8929C40.184 56.3423 40.6334 57.4248 41.2276 58.4283L38.7981 60.8579L43.1632 65.223L45.5927 62.7934C46.6001 63.3916 47.6876 63.843 48.8225 64.1339V67.5659H54.996V64.1339C56.1258 63.8441 57.2085 63.3946 58.2114 62.7992L60.6409 65.2288L65.0003 60.8579L62.5707 58.4283C63.1661 57.4254 63.6156 56.3428 63.9054 55.213H67.3287ZM51.9396 58.3012C50.7186 58.3012 49.525 57.9392 48.5098 57.2608C47.4945 56.5824 46.7032 55.6183 46.236 54.4902C45.7687 53.3621 45.6465 52.1208 45.8847 50.9233C46.1229 49.7257 46.7109 48.6257 47.5742 47.7623C48.4376 46.8989 49.5377 46.311 50.7352 46.0727C51.9328 45.8345 53.1741 45.9568 54.3021 46.4241C55.4302 46.8913 56.3944 47.6826 57.0727 48.6978C57.7511 49.7131 58.1132 50.9067 58.1132 52.1277C58.1124 53.7648 57.4617 55.3346 56.3041 56.4922C55.1465 57.6498 53.5767 58.3005 51.9396 58.3012Z" fill="url(#paint0_linear)"/>
<path d="M53.9184 67.8717L49.9375 67.8543C49.733 67.8573 49.5313 67.8076 49.3516 67.7099C49.172 67.6123 49.0206 67.47 48.9119 67.2968C48.7321 67.0005 48.6427 66.6581 48.6548 66.3117V64.4686C47.5973 64.2084 46.5833 63.7958 45.6446 63.2437L44.229 64.561C43.9469 64.8342 43.5683 64.9851 43.1756 64.9807C42.7829 64.9764 42.4077 64.8173 42.1317 64.5379L39.3295 61.7068C39.05 61.4258 38.8932 61.0457 38.8932 60.6495C38.8932 60.2532 39.05 59.8731 39.3295 59.5921L40.6497 58.2777C40.1057 57.3606 39.6961 56.3702 39.4335 55.3368H37.5961C37.4049 55.3411 37.215 55.3035 37.0399 55.2266C36.8647 55.1498 36.7085 55.0355 36.5821 54.8919C36.3492 54.611 36.2278 54.2541 36.2412 53.8895L36.2615 49.9086C36.2549 49.727 36.2844 49.5458 36.3484 49.3757C36.4124 49.2056 36.5095 49.0499 36.6341 48.9177C36.7646 48.7911 36.9195 48.6925 37.0894 48.6279C37.2593 48.5634 37.4405 48.5342 37.6221 48.5421H39.4624C39.7235 47.4968 40.1362 46.4953 40.6872 45.5695L39.3901 44.2001C39.1159 43.9174 38.9644 43.5377 38.9687 43.1438C38.9731 42.7499 39.1328 42.3737 39.4132 42.097L42.2501 39.2948C42.3878 39.1533 42.5534 39.0419 42.7364 38.9678C42.9195 38.8937 43.1159 38.8585 43.3132 38.8644C43.7089 38.8599 44.0903 39.0126 44.3735 39.289L45.7226 40.6295C46.6793 40.0759 47.7092 39.6597 48.7819 39.393V37.5586C48.7684 37.2182 48.8635 36.8823 49.0535 36.5995C49.1682 36.4447 49.3189 36.3201 49.4925 36.2365C49.6662 36.153 49.8576 36.113 50.0501 36.1199L54.031 36.1401C54.4265 36.1284 54.8105 36.2738 55.0991 36.5445C55.3876 36.8152 55.5572 37.1892 55.5708 37.5846V39.4248C56.5893 39.6829 57.5632 40.0929 58.4597 40.641L59.7424 39.3497C60.0233 39.0703 60.4034 38.9134 60.7997 38.9134C61.1959 38.9134 61.5761 39.0703 61.857 39.3497L64.6564 42.1837C64.7956 42.3229 64.906 42.4882 64.9814 42.6701C65.0567 42.852 65.0955 43.047 65.0955 43.2439C65.0955 43.4408 65.0567 43.6358 64.9814 43.8177C64.906 43.9996 64.7956 44.1649 64.6564 44.3041L63.3275 45.6359C63.8783 46.5721 64.2909 47.5831 64.5524 48.6375H66.3897C66.7535 48.6303 67.1113 48.7308 67.4181 48.9264C67.5966 49.0394 67.7434 49.196 67.8445 49.3815C67.9456 49.5671 67.9977 49.7753 67.9959 49.9866L67.9699 54.0223C67.9644 54.2322 67.9119 54.4381 67.8165 54.6251C67.721 54.8121 67.5849 54.9753 67.4181 55.1028C67.1108 55.3425 66.7332 55.4744 66.3435 55.4783H64.483C64.1928 56.4947 63.7897 57.4753 63.2812 58.4019L64.587 59.7308C64.8654 60.0111 65.0216 60.3902 65.0216 60.7852C65.0216 61.1803 64.8654 61.5593 64.587 61.8397L61.7588 64.6419C61.4787 64.9183 61.1008 65.073 60.7072 65.0723C60.511 65.0717 60.3169 65.0323 60.136 64.9565C59.955 64.8806 59.7908 64.7698 59.6528 64.6303L58.3557 63.3015C57.4568 63.8428 56.4835 64.2496 55.4668 64.509V66.3463C55.4601 66.7486 55.2963 67.1322 55.0104 67.4152C54.8681 67.5605 54.6982 67.6757 54.5106 67.7541C54.323 67.8325 54.1216 67.8725 53.9184 67.8717ZM45.4886 61.805L45.8584 62.0361C46.9245 62.715 48.1065 63.1919 49.3452 63.443L49.8017 63.5383V66.3059C49.8017 66.3463 49.8017 66.6988 49.9461 66.6988L53.927 66.719C54.0263 66.7146 54.1198 66.6709 54.187 66.5977C54.2611 66.5274 54.3046 66.431 54.3084 66.329V63.5788L54.759 63.4835C55.9607 63.2259 57.1046 62.749 58.1332 62.0766L58.5724 61.8079L59.0317 62.3683L60.4444 63.7955C60.4762 63.8284 60.5143 63.8546 60.5565 63.8725C60.5987 63.8903 60.6441 63.8995 60.6899 63.8995C60.7355 63.8997 60.7807 63.8909 60.8228 63.8736C60.865 63.8562 60.9033 63.8306 60.9355 63.7983L63.7637 60.999C63.8291 60.9335 63.8659 60.8446 63.8659 60.752C63.8659 60.6594 63.8291 60.5706 63.7637 60.505L61.8368 58.5406L62.0708 58.1621C62.7069 57.094 63.1838 55.9388 63.4864 54.733L63.5961 54.3055H66.3406C66.4693 54.2963 66.5931 54.2523 66.6988 54.1783C66.7303 54.1561 66.757 54.1277 66.7773 54.095C66.7976 54.0622 66.8112 54.0258 66.8172 53.9877L66.8375 50.0068C66.8375 49.9866 66.8375 49.9519 66.7624 49.8999C66.641 49.8303 66.5036 49.7934 66.3637 49.793L63.6135 49.7786L63.5181 49.3279C63.2648 48.0966 62.789 46.9218 62.1141 45.8612L62.0015 45.6792L62.0679 45.2864L62.2037 45.1159L63.8301 43.4895C63.8965 43.4215 63.9336 43.3302 63.9336 43.2352C63.9336 43.1402 63.8965 43.049 63.8301 42.981L61.0308 40.1499C60.9648 40.0843 60.8754 40.0475 60.7824 40.0475C60.6893 40.0475 60.5999 40.0843 60.5339 40.1499L58.6446 42.1028L58.2604 41.8659C57.238 41.1836 56.0931 40.7059 54.889 40.459L54.4355 40.3637V37.5961C54.4355 37.4141 54.2275 37.3072 54.031 37.2899L50.0617 37.2668C49.975 37.287 49.9346 37.3766 49.9346 37.5701V40.3204L49.4839 40.4157C48.2415 40.6683 47.0552 41.1439 45.9826 41.8197L45.815 41.9237L45.4221 41.8775L45.217 41.7301L43.579 40.1037C43.5455 40.0696 43.5054 40.0426 43.4613 40.0242C43.4171 40.0059 43.3697 39.9966 43.3219 39.9968C43.2754 39.9962 43.2293 40.0049 43.1861 40.0222C43.143 40.0396 43.1037 40.0653 43.0706 40.0979L40.2337 42.8972C40.1675 42.963 40.1301 43.0524 40.1297 43.1457C40.1285 43.1911 40.1367 43.2364 40.1535 43.2786C40.1704 43.3208 40.1957 43.3591 40.2279 43.3912L42.149 45.4135L41.9179 45.789C41.2382 46.8394 40.7601 48.0071 40.5081 49.2326L40.4128 49.689H37.6452C37.5123 49.689 37.4806 49.7121 37.4661 49.7266C37.4333 49.7855 37.4192 49.853 37.4257 49.9201L37.4055 53.901C37.3989 53.9895 37.4212 54.0776 37.469 54.1523C37.469 54.1523 37.5095 54.1986 37.6221 54.2015L40.3724 54.2159L40.4677 54.6666C40.7197 55.8748 41.1896 57.027 41.8544 58.0668L42.0075 58.3152L41.7648 58.7919L40.1384 60.4097C40.1049 60.4419 40.0783 60.4805 40.0599 60.5231C40.0416 60.5658 40.0319 60.6117 40.0315 60.6581C40.0316 60.7518 40.0678 60.8418 40.1326 60.9095L42.9348 63.7406C43.0007 63.8053 43.0894 63.8416 43.1818 63.8416C43.2742 63.8416 43.3629 63.8053 43.4288 63.7406L45.4886 61.805ZM52.0001 58.2863H51.9684C51.1618 58.2824 50.3634 58.1235 49.6168 57.8183L49.4175 57.7346L49.2355 57.6508C49.0532 57.5641 48.8758 57.4677 48.7039 57.3619C48.6172 57.307 48.5306 57.255 48.4497 57.1972L48.2041 57.021L48.0799 56.9257C47.8529 56.7484 47.6386 56.5553 47.4386 56.3479C47.237 56.1362 47.0498 55.9113 46.8781 55.6748C46.8088 55.5766 46.7452 55.4812 46.6817 55.3859C46.4914 55.0886 46.3271 54.7754 46.1906 54.4499C45.8582 53.6651 45.69 52.8206 45.6966 51.9683C45.7013 51.0895 45.8896 50.2213 46.2492 49.4194C46.6089 48.6175 47.1321 47.8995 47.7852 47.3115C47.8979 47.2104 48.0135 47.1121 48.1319 47.0226L48.2504 46.933C48.337 46.8695 48.4179 46.8117 48.5017 46.7568C48.7542 46.5875 49.0188 46.4368 49.2932 46.3061L49.5821 46.1819C50.3642 45.8688 51.1981 45.7051 52.0406 45.6995C53.0379 45.7039 54.0199 45.9445 54.9064 46.4015C54.9988 46.4477 55.0855 46.4997 55.175 46.5488C55.2646 46.5979 55.435 46.7077 55.5621 46.7944L55.8077 46.9706L55.9204 47.0572C56.007 47.1266 56.0821 47.1901 56.1572 47.2566C56.2324 47.323 56.3826 47.4588 56.4895 47.5686C56.5963 47.6784 56.6281 47.7101 56.6946 47.7852C56.8647 47.9675 57.0229 48.1605 57.1684 48.363C57.2261 48.4468 57.2839 48.5306 57.3359 48.6172C57.3879 48.7039 57.4428 48.7877 57.4919 48.8772C57.541 48.9668 57.6392 49.1459 57.7057 49.2846C58.1132 50.1385 58.3207 51.0742 58.3124 52.0204C58.3093 52.5516 58.2404 53.0805 58.1072 53.5948C58.0812 53.693 58.0495 53.7912 58.0206 53.8837C57.9744 54.031 57.9195 54.1726 57.8646 54.3199C57.827 54.4152 57.7837 54.5106 57.7404 54.6088L57.6537 54.7937C57.593 54.9121 57.5295 55.0335 57.463 55.149C57.3966 55.2646 57.3561 55.3252 57.3012 55.409C57.2464 55.4928 57.2117 55.5448 57.1655 55.6112L56.9459 55.9001C56.8852 55.9781 56.8217 56.0561 56.7552 56.1312L56.6512 56.2468C56.5848 56.319 56.5155 56.3883 56.4461 56.4606L56.3364 56.5675C56.189 56.7061 56.0475 56.8361 55.877 56.9603L55.7499 57.0557C55.6748 57.1135 55.591 57.1712 55.5072 57.2261C55.4235 57.281 55.3368 57.3388 55.2501 57.3908L55.123 57.463C55.0306 57.515 54.941 57.5641 54.8486 57.6103C53.9649 58.0551 52.9894 58.2866 52.0001 58.2863ZM49.8884 56.6917L50.0443 56.761C50.6571 57.0109 51.3123 57.1404 51.9741 57.1423C52.7914 57.1542 53.599 56.9647 54.3257 56.5906C54.4008 56.553 54.473 56.5126 54.5452 56.4721L54.6579 56.4057L54.863 56.2786L55.0652 56.1341L55.1779 56.0446C55.305 55.9463 55.4292 55.8366 55.5506 55.7239L55.6372 55.6401L55.8135 55.4581L55.8944 55.3657C55.9464 55.3079 56.0012 55.2443 56.0532 55.1779L56.3421 54.7735C56.3884 54.7041 56.4317 54.6319 56.475 54.5597C56.5184 54.4875 56.5819 54.3661 56.631 54.2708L56.7032 54.1206C56.7379 54.0455 56.7697 53.9675 56.8015 53.8895C56.8332 53.8115 56.891 53.6526 56.9286 53.5341C56.9661 53.4157 56.9777 53.3724 57.0008 53.2886C57.308 52.1096 57.1914 50.8602 56.6715 49.7584C56.6194 49.6456 56.5616 49.5357 56.4981 49.429C56.4577 49.3539 56.4144 49.2846 56.371 49.2124C56.3277 49.1401 56.2815 49.0737 56.2324 49.0072C56.1139 48.838 55.9856 48.676 55.8481 48.5219C55.7932 48.4612 55.7355 48.4006 55.6777 48.3428C55.6199 48.285 55.4986 48.1695 55.4061 48.0886C55.3137 48.0077 55.279 47.9788 55.2126 47.9268L55.1172 47.8517L54.915 47.7072C54.811 47.6379 54.707 47.5715 54.6001 47.5079L54.3806 47.3866C53.7112 47.0417 52.9745 46.8469 52.2221 46.816C51.4697 46.7851 50.7196 46.9187 50.0241 47.2075C49.949 47.2392 49.871 47.271 49.7959 47.3086C49.5708 47.4164 49.3536 47.54 49.1459 47.6783C49.0737 47.7246 49.0072 47.7737 48.9379 47.8228L48.8397 47.8979C48.7444 47.973 48.649 48.0539 48.5508 48.1348C47.753 48.8526 47.1986 49.801 46.9646 50.8484C46.7306 51.8957 46.8286 52.9899 47.245 53.979C47.3579 54.2452 47.4932 54.5013 47.6495 54.7446C47.7015 54.8283 47.7564 54.9063 47.8112 54.9843C48.0907 55.3717 48.4222 55.7188 48.7964 56.0157L48.8946 56.0937L49.0968 56.241L49.3048 56.3739C49.4461 56.4612 49.5916 56.5412 49.741 56.6137L49.8884 56.6917Z" fill="white"/>
<path d="M53.9182 68.0102L49.9374 67.99C49.7077 67.9956 49.4806 67.9416 49.2781 67.8332C49.0755 67.7249 48.9046 67.5659 48.7818 67.3717C48.5836 67.0532 48.4832 66.6836 48.4929 66.3086V64.5753C47.4909 64.3209 46.5279 63.9322 45.63 63.4197L44.2896 64.6706C43.9824 64.9699 43.5691 65.1352 43.1402 65.1304C42.7113 65.1255 42.3019 64.9508 42.0016 64.6446L39.1994 61.8106C39.0474 61.659 38.9268 61.4789 38.8445 61.2806C38.7622 61.0823 38.7199 60.8698 38.7199 60.6551C38.7199 60.4404 38.7622 60.2278 38.8445 60.0295C38.9268 59.8312 39.0474 59.6511 39.1994 59.4995L40.4445 58.2631C39.9368 57.3905 39.5481 56.4539 39.2889 55.4782H37.5556C37.3444 55.4826 37.1349 55.4406 36.9418 55.3553C36.7486 55.2699 36.5765 55.1432 36.4376 54.9842C36.1839 54.6769 36.0513 54.2875 36.0649 53.8893L36.0851 49.9084C36.0781 49.709 36.111 49.5101 36.1819 49.3236C36.2529 49.137 36.3604 48.9665 36.4982 48.8222C36.6415 48.6834 36.8112 48.575 36.9974 48.5035C37.1836 48.432 37.3823 48.3989 37.5816 48.4062H39.3149C39.5685 47.4186 39.9574 46.4707 40.4705 45.5895L39.234 44.2895C39.0836 44.1376 38.9652 43.9571 38.8858 43.7586C38.8064 43.5601 38.7676 43.3477 38.7718 43.134C38.7731 42.9187 38.8169 42.7058 38.9007 42.5075C38.9845 42.3092 39.1066 42.1294 39.26 41.9784L42.094 39.1791C42.2453 39.0272 42.4255 38.9073 42.624 38.8264C42.8225 38.7455 43.0353 38.7053 43.2496 38.7082C43.4646 38.7078 43.6775 38.7502 43.8759 38.8331C44.0743 38.9159 44.2542 39.0375 44.4051 39.1906L45.6791 40.456C46.5861 39.9392 47.5575 39.5448 48.568 39.2831V37.5497C48.5518 37.1821 48.653 36.8189 48.8569 36.5126C48.9845 36.34 49.1521 36.2008 49.3454 36.1072C49.5386 36.0136 49.7517 35.9684 49.9662 35.9753L53.9587 35.9955C54.3915 35.9862 54.8104 36.1482 55.1242 36.4464C55.4381 36.7445 55.6214 37.1546 55.6342 37.5873V39.3206C56.5899 39.577 57.5049 39.966 58.3527 40.4762L59.5602 39.26C59.8672 38.9544 60.2827 38.7829 60.7158 38.7829C61.1489 38.7829 61.5644 38.9544 61.8714 39.26L64.6707 42.094C64.9748 42.4017 65.1454 42.8169 65.1454 43.2495C65.1454 43.6822 64.9748 44.0974 64.6707 44.4051L63.414 45.6617C63.9247 46.5533 64.3134 47.5094 64.5696 48.5044H66.3029C66.6946 48.504 67.078 48.6175 67.4065 48.8309C67.6041 48.9561 67.7668 49.1294 67.8794 49.3344C67.9921 49.5395 68.051 49.7698 68.0507 50.0037L68.1085 54.0222C68.1029 54.2526 68.0458 54.4789 67.9413 54.6844C67.8368 54.8899 67.6876 55.0693 67.5047 55.2095C67.1836 55.4601 66.7909 55.6018 66.3838 55.614H66.3405H64.584C64.3035 56.5714 63.924 57.497 63.4516 58.3757L64.6822 59.6324C64.8346 59.7838 64.9555 59.9639 65.038 60.1622C65.1205 60.3605 65.1629 60.5732 65.1629 60.788C65.1629 61.0028 65.1205 61.2154 65.038 61.4137C64.9555 61.6121 64.8346 61.7921 64.6822 61.9435L61.8425 64.7111C61.6904 64.8619 61.5101 64.9812 61.3117 65.062C61.1134 65.1428 60.9011 65.1836 60.6869 65.182C60.4718 65.1834 60.2585 65.1413 60.06 65.0585C59.8614 64.9756 59.6817 64.8535 59.5314 64.6995L58.3094 63.4631C57.4574 63.9732 56.5386 64.3621 55.5794 64.6186V66.352C55.5719 66.7905 55.3947 67.209 55.0848 67.5194C54.775 67.8298 54.3567 68.0078 53.9182 68.016V68.0102ZM45.6156 63.0731L45.7022 63.1251C46.6336 63.6707 47.6386 64.0793 48.6865 64.3384L48.7905 64.3615V66.3115C48.7803 66.6313 48.8625 66.9473 49.0274 67.2215C49.1242 67.3754 49.2591 67.5017 49.419 67.5883C49.5789 67.6748 49.7584 67.7186 49.9402 67.7155L53.9182 67.7357V67.8715V67.7357C54.2842 67.7269 54.6327 67.5772 54.891 67.3178C55.1493 67.0584 55.2976 66.7093 55.3049 66.3433V64.402L55.4089 64.376C56.4132 64.1204 57.3741 63.7173 58.2602 63.18L58.3527 63.128L59.722 64.5146C59.8463 64.6422 59.9951 64.7436 60.1593 64.8125C60.3236 64.8815 60.5001 64.9168 60.6782 64.9162C60.8559 64.9175 61.0321 64.8838 61.1967 64.8169C61.3613 64.7499 61.511 64.6511 61.6374 64.5262L64.4656 61.724C64.7194 61.4699 64.862 61.1254 64.862 60.7663C64.862 60.4071 64.7194 60.0627 64.4656 59.8086L63.0905 58.4075L63.1396 58.318C63.6407 57.4017 64.0389 56.4329 64.3269 55.4291L64.3558 55.3309H66.3202C66.6794 55.3284 67.0277 55.2076 67.3111 54.9871C67.4616 54.8715 67.5845 54.724 67.6709 54.5551C67.7574 54.3862 67.8052 54.2003 67.8109 54.0106L67.8311 50.0326C67.8311 49.8434 67.7831 49.6573 67.6916 49.4916C67.6002 49.3259 67.4683 49.186 67.3082 49.0851C67.0248 48.8993 66.6938 48.799 66.3549 48.7962H64.4107L64.3876 48.6951C64.1268 47.6528 63.7171 46.6536 63.1714 45.7282L63.1194 45.6357L64.5262 44.2289C64.7801 43.9725 64.9225 43.6262 64.9225 43.2654C64.9225 42.9046 64.7801 42.5584 64.5262 42.302L61.724 39.4709C61.469 39.2167 61.1236 39.0739 60.7635 39.0739C60.4034 39.0739 60.058 39.2167 59.8029 39.4709L58.4451 40.8344L58.3527 40.7795C57.4713 40.2403 56.5141 39.8362 55.5129 39.5806L55.406 39.5546V37.6046C55.3925 37.2447 55.2374 36.9047 54.9744 36.6586C54.7115 36.4124 54.362 36.28 54.002 36.2902L50.0211 36.27C49.8485 36.2622 49.6766 36.2968 49.5205 36.3709C49.3644 36.4449 49.2288 36.5561 49.1256 36.6946C48.9565 36.9512 48.8716 37.2542 48.8829 37.5613V39.5026L48.7789 39.5286C47.7193 39.792 46.702 40.2034 45.7571 40.7506L45.6647 40.8026L44.2434 39.39C44.1173 39.2622 43.9671 39.1609 43.8014 39.092C43.6357 39.023 43.4579 38.9878 43.2785 38.9884C43.0991 38.9841 42.9207 39.0164 42.7543 39.0835C42.5879 39.1506 42.4369 39.2509 42.3107 39.3784L39.4738 42.1806C39.2183 42.4314 39.0727 42.7733 39.0689 43.1312C39.0651 43.4892 39.2035 43.8341 39.4536 44.0902L40.8345 45.5346L40.7825 45.6242C40.2372 46.5389 39.8293 47.5288 39.572 48.5622L39.546 48.6662H37.5989C37.4342 48.6579 37.2696 48.6834 37.1151 48.741C36.9606 48.7986 36.8195 48.8872 36.7005 49.0013C36.5882 49.121 36.5008 49.2618 36.4433 49.4155C36.3858 49.5693 36.3593 49.7328 36.3654 49.8969L36.3451 53.8777C36.3328 54.2096 36.4428 54.5345 36.6542 54.7906C36.7679 54.9192 36.9082 55.0214 37.0653 55.0903C37.2225 55.1591 37.3927 55.1929 37.5642 55.1893H39.5085L39.5345 55.2904C39.794 56.3125 40.1987 57.2922 40.7362 58.1995L40.7911 58.2891L39.3929 59.6786C39.1389 59.9332 38.9962 60.2781 38.9962 60.6377C38.9962 60.9974 39.1389 61.3423 39.3929 61.5969L42.1951 64.4309C42.3188 64.5572 42.4662 64.6579 42.6288 64.7273C42.7914 64.7967 42.9661 64.8334 43.1428 64.8353C43.3196 64.8371 43.495 64.8042 43.6591 64.7383C43.8231 64.6723 43.9726 64.5748 44.0989 64.4511L45.6156 63.0731ZM53.9182 66.8662L49.9345 66.8489C49.904 66.8485 49.8739 66.842 49.8461 66.8295C49.8182 66.8171 49.7933 66.7991 49.7727 66.7766C49.6828 66.6389 49.6402 66.4756 49.6514 66.3115V63.6595L49.3047 63.5873C48.0503 63.3338 46.8536 62.851 45.7745 62.1631L45.4856 61.9897L43.5038 63.8386C43.4116 63.9279 43.2884 63.9779 43.16 63.9779C43.0317 63.9779 42.9084 63.9279 42.8162 63.8386L40.0169 61.0075C39.9252 60.9155 39.8737 60.7908 39.8737 60.6609C39.8737 60.5309 39.9252 60.4062 40.0169 60.3142L41.6289 58.7137L41.8254 58.3237L41.7156 58.1417C41.0317 57.0839 40.5498 55.9085 40.2942 54.6751L40.222 54.3284H37.5787C37.5312 54.3328 37.4833 54.3262 37.4387 54.3092C37.3941 54.2922 37.3541 54.2651 37.3216 54.2302C37.2544 54.1306 37.221 54.0122 37.2262 53.8922L37.2465 49.9084C37.2407 49.8054 37.2703 49.7035 37.3302 49.6195C37.3693 49.5855 37.4157 49.5611 37.4659 49.548C37.516 49.535 37.5685 49.5338 37.6191 49.5444H40.2682L40.3405 49.1977C40.5926 47.9565 41.0757 46.7737 41.7647 45.7109L41.9409 45.422L40.0949 43.4864C40.0505 43.4415 40.0154 43.3883 39.9916 43.3298C39.9678 43.2713 39.9558 43.2087 39.9562 43.1455C39.9563 43.0815 39.9691 43.0181 39.9939 42.9591C40.0187 42.9001 40.055 42.8466 40.1007 42.8017L42.9405 39.9995C43.0362 39.9104 43.1621 39.8608 43.2929 39.8608C43.4237 39.8608 43.5496 39.9104 43.6454 39.9995L45.2834 41.626L45.4394 41.7386L45.7514 41.7762L45.8814 41.6982C46.9666 41.0141 48.1664 40.5316 49.4231 40.274L49.7669 40.2017V37.5613C49.7669 37.4602 49.7669 37.1829 49.998 37.128L54.0136 37.1453C54.1427 37.1362 54.2704 37.1769 54.3704 37.2592C54.4703 37.3414 54.535 37.4588 54.5509 37.5873V40.2422L54.8976 40.3144C56.1119 40.5694 57.2667 41.0527 58.3007 41.7386L58.5896 41.9206L60.4298 40.0717C60.4737 40.0266 60.5263 39.9908 60.5844 39.9665C60.6424 39.9422 60.7048 39.9298 60.7678 39.9302C60.8318 39.9303 60.8952 39.9431 60.9542 39.9679C61.0132 39.9927 61.0667 40.029 61.1116 40.0746L63.9138 42.9086C64.0051 43.002 64.0559 43.1276 64.0554 43.2582C64.0535 43.3894 64.0006 43.5148 63.908 43.6077L62.2816 45.2342L62.1776 45.3671L62.1256 45.6733L62.2094 45.812C62.8934 46.8823 63.3752 48.069 63.6307 49.3133L63.7029 49.6571L66.3434 49.6715C66.5105 49.6683 66.6751 49.7134 66.8171 49.8015C66.8572 49.8223 66.8912 49.8532 66.9155 49.8913C66.9399 49.9293 66.9538 49.9731 66.9558 50.0182L66.9645 54.0222C66.957 54.0797 66.9377 54.135 66.9079 54.1847C66.8781 54.2344 66.8383 54.2774 66.7911 54.3111C66.6668 54.4016 66.5198 54.4556 66.3665 54.4671H63.7116L63.6249 54.7935C63.3218 56.0128 62.8409 57.1809 62.1978 58.2602L62.0187 58.5491L63.8676 60.4326C63.9131 60.4781 63.9491 60.5321 63.9734 60.5917C63.9977 60.6512 64.0098 60.715 64.0091 60.7793C64.0099 60.8427 63.9977 60.9057 63.9734 60.9643C63.949 61.0229 63.9131 61.0759 63.8676 61.1202L61.0365 63.9224C60.9444 64.0109 60.8218 64.0603 60.6941 64.0603C60.5665 64.0603 60.4438 64.0109 60.3518 63.9224L58.9074 62.4462L58.5231 62.0389L58.2342 62.2237C57.1938 62.9047 56.0359 63.3867 54.8196 63.6451L54.4758 63.7173V66.3577C54.4714 66.497 54.4122 66.6288 54.3111 66.7246C54.2592 66.7744 54.1974 66.8127 54.1297 66.8371C54.062 66.8615 53.99 66.8714 53.9182 66.8662ZM49.9634 66.5773L53.9182 66.5975C53.9804 66.5918 54.0382 66.563 54.08 66.5166C54.1286 66.4714 54.1585 66.4095 54.1638 66.3433V63.4804L54.7242 63.3649C55.9148 63.1109 57.048 62.6388 58.0667 61.9724L58.5838 61.6546L59.1818 62.3306L60.5482 63.7115C60.5877 63.7477 60.6392 63.7677 60.6927 63.7677C60.7462 63.7677 60.7977 63.7477 60.8371 63.7115L63.6682 60.9093C63.6883 60.8897 63.7042 60.8664 63.7151 60.8406C63.726 60.8148 63.7317 60.7871 63.7318 60.7591C63.7313 60.7026 63.7085 60.6486 63.6682 60.6089L61.6691 58.5693L61.958 58.0984C62.5861 57.0427 63.0571 55.9012 63.3562 54.7097L63.492 54.1753L66.3462 54.1897C66.4429 54.1815 66.5357 54.1476 66.6149 54.0915C66.6465 54.0706 66.6707 54.0403 66.6842 54.0049L66.7045 50.024C66.5975 49.9779 66.4829 49.9524 66.3665 49.9489H63.5036L63.388 49.3913C63.1367 48.1779 62.6658 47.0207 61.9985 45.9766L61.8598 45.7484L61.9407 45.2717L62.1111 45.0666L63.7491 43.4286C63.7912 43.3864 63.815 43.3294 63.8156 43.2697C63.8155 43.2123 63.7927 43.1572 63.752 43.1166L60.9556 40.2769C60.9146 40.2364 60.86 40.2127 60.8025 40.2104C60.7753 40.2104 60.7484 40.2161 60.7236 40.227C60.6987 40.238 60.6764 40.254 60.658 40.274L58.6647 42.276L58.188 41.9871C57.1816 41.3181 56.0571 40.8465 54.8745 40.5975L54.2967 40.4791V37.5902C54.2967 37.4977 54.1522 37.4255 54.0309 37.4255L50.0818 37.4024C50.0646 37.4565 50.0568 37.5132 50.0587 37.57V40.4329L49.4982 40.5484C48.2692 40.8 47.0951 41.2697 46.0316 41.9351L45.8207 42.0651L45.318 41.9871L45.1129 41.8397L43.4605 40.2017C43.4168 40.1616 43.3595 40.1392 43.3001 40.1392C43.2407 40.1392 43.1835 40.1616 43.1398 40.2017L40.3029 43.004C40.2627 43.0437 40.2399 43.0977 40.2394 43.1542C40.2389 43.182 40.244 43.2096 40.2545 43.2355C40.2649 43.2613 40.2804 43.2847 40.3 43.3044L42.2934 45.396L42.0045 45.8611C41.3325 46.8978 40.8603 48.051 40.612 49.2613L40.4965 49.8246H37.6076H37.5556C37.5556 49.8246 37.5556 49.8651 37.5556 49.9171L37.5354 53.898C37.532 53.9525 37.5419 54.007 37.5642 54.0569H37.6163H40.4791L40.5976 54.6173C40.8477 55.817 41.3179 56.9601 41.9842 57.9886L42.1749 58.2977L41.886 58.8755L40.2596 60.4904C40.2195 60.5314 40.1967 60.5862 40.196 60.6435C40.1948 60.6719 40.1996 60.7002 40.2101 60.7265C40.2205 60.7529 40.2364 60.7768 40.2567 60.7966L43.0589 63.6277C43.098 63.6645 43.1497 63.685 43.2034 63.685C43.257 63.685 43.3087 63.6645 43.3478 63.6277L45.4856 61.6344L45.9449 61.9233C46.9974 62.5953 48.1647 63.0673 49.3885 63.3157L49.9662 63.4313V66.3202C49.9548 66.4049 49.9587 66.4911 49.9778 66.5744L49.9634 66.5773ZM52 58.422H51.9682C51.1442 58.4189 50.3283 58.2581 49.5647 57.9482L49.3625 57.8586L49.1776 57.772C48.9908 57.685 48.8086 57.5886 48.6316 57.4831C48.542 57.4282 48.4554 57.3733 48.3687 57.3126C48.282 57.252 48.2011 57.1971 48.1202 57.1364L47.996 57.0411C47.764 56.8538 47.544 56.6522 47.3374 56.4373C47.129 56.2229 46.9359 55.9941 46.7596 55.7526C46.6874 55.6515 46.6209 55.5533 46.5574 55.4637C46.3627 55.16 46.1945 54.8401 46.0547 54.5075C45.5348 53.2735 45.4124 51.9082 45.7044 50.6014C45.9964 49.2946 46.6883 48.1113 47.684 47.216C47.7996 47.112 47.918 47.0137 48.0422 46.9271L48.1578 46.8346C48.2474 46.7711 48.3311 46.7104 48.4178 46.6555C48.6757 46.4817 48.946 46.3272 49.2267 46.1933L49.5156 46.0662C50.3136 45.7476 51.1639 45.58 52.0231 45.5722C53.0436 45.5773 54.0484 45.8238 54.9554 46.2915C55.0478 46.3406 55.1402 46.3897 55.2298 46.4446C55.3627 46.5226 55.4956 46.6035 55.6227 46.6902L55.874 46.8722L55.9896 46.9617C56.0791 47.0311 56.1542 47.0975 56.2322 47.164C56.3102 47.2304 56.4634 47.372 56.5702 47.4817C56.6771 47.5915 56.7147 47.6291 56.7811 47.7042C56.9546 47.8968 57.1166 48.0994 57.2665 48.3109C57.3242 48.3956 57.382 48.4823 57.4398 48.5709C57.4918 48.6575 57.5467 48.7442 57.5958 48.8337C57.6748 48.9686 57.747 49.1072 57.8125 49.2497C58.4626 50.6234 58.6079 52.1823 58.2227 53.6524C58.1967 53.7564 58.1678 53.8575 58.136 53.9586C58.0869 54.1089 58.0349 54.2475 57.9771 54.4064C57.9367 54.5017 57.8962 54.6 57.8529 54.6953L57.7605 54.8802C57.6998 55.0044 57.6334 55.1257 57.5669 55.2471C57.5005 55.3684 57.4571 55.4262 57.4022 55.5129C57.3474 55.5995 57.3098 55.6486 57.2636 55.718L57.0411 56.0069L56.8447 56.2437L56.7378 56.3622C56.6714 56.4344 56.5991 56.5066 56.5298 56.5789L56.4142 56.6886C56.2653 56.8305 56.1091 56.9645 55.9462 57.0902L55.8191 57.1884C55.7411 57.2462 55.6545 57.304 55.5678 57.3617C55.4811 57.4195 55.3945 57.4773 55.3049 57.5293L55.1807 57.6044L54.8918 57.7546C53.9926 58.1982 53.0026 58.4267 52 58.422ZM49.4954 57.6189C49.5531 57.6449 49.6109 57.6709 49.6687 57.6911C50.4021 57.9919 51.1871 58.1469 51.9798 58.1475L52.0116 58.2862V58.1475C52.9766 58.147 53.9281 57.9215 54.7907 57.4889L55.0594 57.3444L55.1836 57.2722L55.432 57.1133C55.5158 57.0584 55.5967 57.0006 55.6718 56.9457L55.796 56.8504C55.9578 56.7233 56.1051 56.5991 56.2438 56.4691L56.3536 56.3593C56.42 56.2957 56.4894 56.2235 56.5529 56.1542L56.6569 56.0386L56.8418 55.8162L57.0585 55.5273C57.1018 55.4637 57.148 55.4002 57.1885 55.3337C57.2289 55.2673 57.2954 55.1633 57.3474 55.0766C57.3994 54.99 57.4745 54.8484 57.5322 54.73L57.6218 54.548C57.6622 54.4584 57.7027 54.366 57.7374 54.2735C57.7951 54.132 57.8471 53.9846 57.8905 53.846C57.9222 53.7449 57.9511 53.6495 57.9771 53.5571C58.1081 53.0532 58.176 52.535 58.1794 52.0144C58.1852 51.0892 57.9818 50.1747 57.5842 49.3393C57.5188 49.2026 57.4494 49.0697 57.3762 48.9406C57.3271 48.8569 57.278 48.7702 57.2231 48.6864C57.1682 48.6026 57.1162 48.5217 57.0585 48.4409C56.9161 48.2392 56.7617 48.0462 56.5962 47.8631L56.394 47.6493C56.29 47.5424 56.1802 47.4413 56.0705 47.3431C55.9607 47.2449 55.9202 47.2189 55.8365 47.1495L55.7267 47.0657C55.6487 47.0051 55.5678 46.9473 55.4869 46.8895C55.3627 46.8057 55.2385 46.7277 55.1085 46.6526C54.9785 46.5775 54.9351 46.5544 54.8456 46.5082C53.9778 46.0611 53.0166 45.8255 52.0405 45.8206C51.2167 45.8267 50.4014 45.9874 49.6369 46.2944C49.5445 46.332 49.4549 46.3724 49.3654 46.4157C49.0964 46.5437 48.8367 46.6905 48.5882 46.8549C48.5074 46.9126 48.4265 46.9675 48.3427 47.0311L48.2271 47.1177C48.1116 47.2073 47.996 47.3026 47.8891 47.4066C46.9358 48.2641 46.273 49.3971 45.993 50.6483C45.7129 51.8996 45.8294 53.207 46.3262 54.3891C46.46 54.7026 46.6184 55.0049 46.8 55.2933C46.8607 55.3915 46.9271 55.484 46.9936 55.5822C47.1594 55.8137 47.3419 56.0329 47.5396 56.238C47.7349 56.4449 47.9444 56.6379 48.1665 56.8157L48.2907 56.9082L48.5276 57.0815L48.776 57.2404C48.9551 57.3502 49.1285 57.4465 49.296 57.5293L49.4954 57.6189ZM52.0347 57.2809H51.9711C51.293 57.279 50.6217 57.1446 49.9951 56.8851L49.6802 56.7435C49.5259 56.6695 49.3755 56.5876 49.2296 56.498C49.1574 56.4546 49.088 56.4084 49.0187 56.3622C48.9494 56.316 48.8771 56.2611 48.8107 56.212L48.7067 56.134C48.3229 55.8283 47.9827 55.4716 47.6956 55.0737C47.6378 54.9929 47.5829 54.912 47.5309 54.8282C47.3711 54.5785 47.2329 54.3156 47.1178 54.0424C46.6899 53.027 46.5891 51.9035 46.8293 50.8281C47.0696 49.7528 47.6389 48.779 48.4582 48.0422C48.5507 47.9584 48.6489 47.8746 48.7471 47.7995L48.8454 47.7215C48.9147 47.6695 48.9869 47.6204 49.0591 47.5713C49.2717 47.43 49.4937 47.3036 49.7236 47.1929C49.8016 47.1553 49.8825 47.1235 49.9576 47.0889C50.6124 46.8181 51.3146 46.6806 52.0231 46.6844C52.8609 46.6815 53.6871 46.8797 54.4325 47.2622L54.6578 47.3893C54.7647 47.45 54.8745 47.5193 54.9785 47.5915C55.0825 47.6637 55.1171 47.6869 55.1865 47.7389L55.2847 47.8169L55.484 47.9815C55.5794 48.0653 55.6747 48.152 55.7729 48.2444C55.8711 48.3369 55.8914 48.3657 55.9491 48.4264C56.0867 48.5895 56.215 48.7602 56.3334 48.9377C56.3825 49.0071 56.4287 49.0764 56.4749 49.1486C56.5211 49.2209 56.5645 49.2931 56.6078 49.3682C56.6511 49.4433 56.7291 49.5935 56.784 49.7091C57.127 50.4309 57.3018 51.2211 57.2954 52.0202C57.2929 52.4677 57.2346 52.9131 57.122 53.3462C57.0989 53.43 57.0729 53.5137 57.0498 53.5946C57.0094 53.7189 56.966 53.8402 56.9169 53.9615C56.8678 54.0829 56.8505 54.1204 56.8158 54.1984L56.7436 54.3486C56.6887 54.4526 56.6367 54.5537 56.5818 54.6375C56.5269 54.7213 56.4922 54.7877 56.4431 54.86L56.1542 55.2702C56.0994 55.3424 56.0445 55.406 55.9896 55.4666L55.9058 55.562L55.7267 55.7497L55.6371 55.8335C55.5129 55.952 55.3829 56.0617 55.2529 56.1657L55.1085 56.2726C55.0536 56.3102 54.9987 56.3535 54.9409 56.3911L54.73 56.524L54.6145 56.5904C54.5394 56.6337 54.4671 56.6742 54.3891 56.7117C53.6615 57.0881 52.8539 57.2834 52.0347 57.2809ZM49.946 56.5673L50.0991 56.6337C50.6944 56.8771 51.3309 57.0036 51.974 57.0064H52.0347C52.8103 57.0078 53.575 56.8235 54.2649 56.4691L54.4758 56.3535L54.5885 56.2871L54.7878 56.1629L54.9496 56.0502L55.0854 55.9462C55.2067 55.8509 55.3309 55.7469 55.4494 55.6371L55.5331 55.5533C55.5909 55.4955 55.6487 55.4377 55.7036 55.3771L55.7845 55.2875C55.8336 55.2297 55.8856 55.1691 55.9347 55.1055L56.2236 54.7069C56.2669 54.6404 56.3102 54.5711 56.3507 54.5017C56.3911 54.4324 56.4547 54.3169 56.5038 54.2129L56.5731 54.0655C56.6078 53.9962 56.6396 53.9211 56.6685 53.846C56.6974 53.7709 56.7551 53.6149 56.7927 53.4964C56.8187 53.4213 56.8418 53.3404 56.862 53.2595C56.9691 52.8491 57.0244 52.427 57.0267 52.0029C57.0325 51.2493 56.8665 50.5044 56.5414 49.8246C56.4894 49.712 56.4345 49.6051 56.3738 49.5011C56.3131 49.3971 56.2929 49.3595 56.2496 49.2931C56.2062 49.2266 56.16 49.1573 56.1138 49.0909C55.9983 48.9264 55.8728 48.7692 55.7382 48.62C55.6862 48.5622 55.6314 48.5015 55.5736 48.4466C55.5158 48.3917 55.4002 48.2762 55.3107 48.1953L55.1229 48.0393L55.0247 47.9642L54.8311 47.8255C54.7329 47.7591 54.6289 47.6926 54.5249 47.632L54.3111 47.5135C53.6059 47.1479 52.8233 46.9567 52.0289 46.956C51.357 46.9527 50.6911 47.0833 50.0702 47.3402C49.998 47.3691 49.9229 47.4009 49.8478 47.4384C49.6295 47.5424 49.419 47.6621 49.218 47.7966C49.1458 47.8429 49.0794 47.8891 49.0158 47.9382L48.9176 48.0133C48.8251 48.0826 48.7356 48.1606 48.6431 48.2444C47.8676 48.9444 47.3291 49.8683 47.1024 50.8881C46.8757 51.9078 46.9719 52.9729 47.3778 53.9355C47.4873 54.1938 47.6188 54.4422 47.7707 54.678L47.9267 54.9149C48.0626 55.102 48.2112 55.2797 48.3716 55.4464C48.5317 55.6152 48.7036 55.7726 48.8858 55.9173L48.984 55.9953L49.1805 56.134C49.244 56.1773 49.3134 56.2235 49.3827 56.264C49.5189 56.3514 49.6607 56.4295 49.8074 56.498L49.946 56.5673Z" fill="white"/>
<path d="M52.8694 26.9453H51.3354V36.4613H52.8694V26.9453Z" fill="white"/>
<path d="M51.9998 27.9928C51.1702 27.9928 50.3592 27.7468 49.6694 27.2859C48.9796 26.825 48.442 26.1699 48.1245 25.4034C47.807 24.6369 47.7239 23.7935 47.8858 22.9798C48.0476 22.1662 48.4471 21.4187 49.0338 20.8321C49.6204 20.2455 50.3678 19.846 51.1815 19.6841C51.9952 19.5223 52.8386 19.6053 53.6051 19.9228C54.3715 20.2403 55.0267 20.7779 55.4876 21.4678C55.9485 22.1576 56.1945 22.9686 56.1945 23.7982C56.1937 24.9104 55.7516 25.9769 54.9651 26.7634C54.1786 27.5499 53.1121 27.9921 51.9998 27.9928ZM51.9998 21.1375C51.4736 21.1375 50.9592 21.2936 50.5217 21.5859C50.0841 21.8783 49.7431 22.2938 49.5417 22.78C49.3403 23.2662 49.2876 23.8011 49.3903 24.3173C49.493 24.8334 49.7464 25.3075 50.1185 25.6796C50.4906 26.0517 50.9646 26.3051 51.4808 26.4077C51.9969 26.5104 52.5319 26.4577 53.018 26.2563C53.5042 26.0549 53.9197 25.7139 54.2121 25.2764C54.5045 24.8388 54.6605 24.3244 54.6605 23.7982C54.6597 23.0928 54.3792 22.4165 53.8804 21.9177C53.3816 21.4188 52.7053 21.1383 51.9998 21.1375Z" fill="white"/>
<path d="M52.6614 67.5391H51.1274V77.0551H52.6614V67.5391Z" fill="white"/>
<path d="M51.9998 84.3952C51.1702 84.3952 50.3592 84.1492 49.6694 83.6883C48.9796 83.2274 48.442 82.5723 48.1245 81.8058C47.807 81.0393 47.7239 80.1959 47.8858 79.3822C48.0476 78.5685 48.4471 77.8211 49.0338 77.2345C49.6204 76.6478 50.3678 76.2483 51.1815 76.0865C51.9952 75.9246 52.8386 76.0077 53.6051 76.3252C54.3715 76.6426 55.0267 77.1803 55.4876 77.8701C55.9485 78.5599 56.1945 79.3709 56.1945 80.2005C56.1937 81.3128 55.7516 82.3793 54.9651 83.1658C54.1786 83.9523 53.1121 84.3945 51.9998 84.3952ZM51.9998 77.5399C51.4736 77.5399 50.9592 77.6959 50.5217 77.9883C50.0841 78.2806 49.7431 78.6962 49.5417 79.1823C49.3403 79.6685 49.2876 80.2035 49.3903 80.7196C49.493 81.2357 49.7464 81.7098 50.1185 82.0819C50.4906 82.454 50.9646 82.7074 51.4808 82.8101C51.9969 82.9128 52.5319 82.8601 53.018 82.6587C53.5042 82.4573 53.9197 82.1163 54.2121 81.6787C54.5045 81.2412 54.6605 80.7268 54.6605 80.2005C54.6597 79.4951 54.3792 78.8188 53.8804 78.32C53.3816 77.8212 52.7053 77.5406 51.9998 77.5399Z" fill="white"/>
<path d="M34.9001 33.6614L33.8154 34.7461L40.5443 41.4749L41.629 40.3902L34.9001 33.6614Z" fill="white"/>
<path d="M32.0665 36.2516C31.2368 36.2514 30.4259 36.0051 29.7363 35.544C29.0466 35.0829 28.5091 34.4277 28.1919 33.6611C27.8746 32.8945 27.7918 32.0511 27.9539 31.2375C28.116 30.4239 28.5157 29.6766 29.1025 29.0901C29.9015 28.3277 30.9635 27.9023 32.0679 27.9023C33.1723 27.9023 34.2343 28.3277 35.0333 29.0901C35.6203 29.6767 36.0201 30.4243 36.1821 31.2382C36.3441 32.0521 36.261 32.8958 35.9434 33.6624C35.6257 34.4291 35.0879 35.0843 34.3977 35.5452C33.7076 36.0061 32.8963 36.252 32.0665 36.2516ZM32.0665 29.3963C31.5404 29.3966 31.0263 29.5528 30.589 29.8452C30.1517 30.1375 29.8109 30.553 29.6097 31.039C29.4084 31.525 29.3557 32.0597 29.4582 32.5757C29.5608 33.0916 29.814 33.5656 30.1858 33.9377C30.6919 34.4201 31.3643 34.6893 32.0636 34.6893C32.7628 34.6893 33.4352 34.4201 33.9413 33.9377C34.3128 33.5659 34.5659 33.0925 34.6686 32.5771C34.7713 32.0617 34.7191 31.5274 34.5186 31.0416C34.318 30.5559 33.9781 30.1404 33.5417 29.8476C33.1053 29.5548 32.592 29.3977 32.0665 29.3963Z" fill="white"/>
<path d="M63.4558 62.5247L62.3711 63.6094L69.0999 70.3382L70.1846 69.2535L63.4558 62.5247Z" fill="white"/>
<path d="M71.9333 76.1335C71.1034 76.1346 70.2919 75.8894 69.6015 75.4289C68.9111 74.9684 68.373 74.3133 68.0552 73.5466C67.7375 72.78 67.6545 71.9363 67.8167 71.1224C67.9789 70.3085 68.3791 69.5611 68.9664 68.9749C69.7655 68.2125 70.8275 67.7871 71.9319 67.7871C73.0363 67.7871 74.0983 68.2125 74.8973 68.9749C75.4845 69.5609 75.8846 70.3081 76.0469 71.1217C76.2092 71.9353 76.1265 72.7788 75.8091 73.5453C75.4917 74.3118 74.954 74.9669 74.2641 75.4277C73.5741 75.8884 72.763 76.1341 71.9333 76.1335ZM71.9333 69.2811C71.4073 69.2814 70.8932 69.4376 70.4559 69.7299C70.0186 70.0223 69.6778 70.4377 69.4765 70.9237C69.2753 71.4097 69.2226 71.9445 69.3251 72.4604C69.4277 72.9764 69.6809 73.4503 70.0527 73.8224C70.362 74.132 70.743 74.3605 71.1617 74.4876C71.5805 74.6148 72.0242 74.6367 72.4534 74.5514C72.8827 74.466 73.2843 74.2761 73.6226 73.9985C73.9609 73.7209 74.2255 73.3641 74.393 72.9597C74.5604 72.5554 74.6255 72.116 74.5826 71.6804C74.5396 71.2449 74.3898 70.8267 74.1466 70.4629C73.9033 70.0991 73.5741 69.8009 73.188 69.5947C72.8019 69.3886 72.371 69.2808 71.9333 69.2811Z" fill="white"/>
<path d="M36.4608 51.127H26.9448V52.661H36.4608V51.127Z" fill="white"/>
<path d="M23.7987 56.194C22.969 56.194 22.158 55.948 21.4682 55.4871C20.7784 55.0262 20.2408 54.3711 19.9233 53.6046C19.6058 52.8381 19.5228 51.9947 19.6846 51.181C19.8465 50.3673 20.246 49.6199 20.8326 49.0333C21.4192 48.4466 22.1666 48.0471 22.9803 47.8853C23.794 47.7234 24.6374 47.8065 25.4039 48.124C26.1704 48.4415 26.8255 48.9791 27.2864 49.6689C27.7473 50.3587 27.9933 51.1697 27.9933 51.9993C27.9918 53.1114 27.5494 54.1774 26.7631 54.9637C25.9767 55.7501 24.9107 56.1925 23.7987 56.194ZM23.7987 49.3387C23.2724 49.3387 22.758 49.4947 22.3205 49.7871C21.8829 50.0794 21.5419 50.495 21.3405 50.9812C21.1392 51.4673 21.0865 52.0023 21.1891 52.5184C21.2918 53.0345 21.5452 53.5086 21.9173 53.8807C22.2894 54.2528 22.7635 54.5062 23.2796 54.6089C23.7957 54.7116 24.3307 54.6589 24.8169 54.4575C25.303 54.2561 25.7186 53.9151 26.0109 53.4775C26.3033 53.04 26.4593 52.5256 26.4593 51.9993C26.4586 51.2939 26.178 50.6176 25.6792 50.1188C25.1804 49.62 24.5041 49.3394 23.7987 49.3387Z" fill="white"/>
<path d="M77.0551 51.3359H67.5391V52.8699H77.0551V51.3359Z" fill="white"/>
<path d="M80.2015 56.194C79.3719 56.194 78.5609 55.948 77.8711 55.4871C77.1813 55.0262 76.6436 54.3711 76.3261 53.6046C76.0087 52.8381 75.9256 51.9947 76.0874 51.181C76.2493 50.3673 76.6488 49.6199 77.2354 49.0333C77.8221 48.4466 78.5695 48.0471 79.3832 47.8853C80.1969 47.7234 81.0403 47.8065 81.8068 48.124C82.5732 48.4415 83.2283 48.9791 83.6893 49.6689C84.1502 50.3587 84.3962 51.1697 84.3962 51.9993C84.3947 53.1114 83.9522 54.1774 83.1659 54.9637C82.3796 55.7501 81.3135 56.1925 80.2015 56.194ZM80.2015 49.3387C79.6753 49.3387 79.1609 49.4947 78.7233 49.7871C78.2858 50.0794 77.9448 50.495 77.7434 50.9812C77.542 51.4673 77.4893 52.0023 77.592 52.5184C77.6946 53.0345 77.948 53.5086 78.3201 53.8807C78.6922 54.2528 79.1663 54.5062 79.6824 54.6089C80.1986 54.7116 80.7335 54.6589 81.2197 54.4575C81.7059 54.2561 82.1214 53.9151 82.4138 53.4775C82.7061 53.04 82.8622 52.5256 82.8622 51.9993C82.8614 51.2939 82.5809 50.6176 82.082 50.1188C81.5832 49.62 80.9069 49.3394 80.2015 49.3387Z" fill="white"/>
<path d="M40.3963 62.3727L33.6675 69.1016L34.7522 70.1863L41.481 63.4574L40.3963 62.3727Z" fill="white"/>
<path d="M32.0667 76.1335C31.237 76.1341 30.4259 75.8884 29.7359 75.4277C29.046 74.9669 28.5083 74.3118 28.1909 73.5453C27.8735 72.7788 27.7908 71.9353 27.9531 71.1217C28.1154 70.3081 28.5155 69.5609 29.1027 68.9749C29.9017 68.2125 30.9637 67.7871 32.0681 67.7871C33.1725 67.7871 34.2345 68.2125 35.0336 68.9749C35.6209 69.5611 36.0211 70.3085 36.1833 71.1224C36.3455 71.9363 36.2625 72.78 35.9448 73.5466C35.627 74.3133 35.0889 74.9684 34.3985 75.4289C33.7081 75.8894 32.8966 76.1346 32.0667 76.1335ZM32.0667 69.2811C31.7174 69.2798 31.3713 69.3478 31.0485 69.4812C30.7256 69.6146 30.4325 69.8107 30.186 70.0582C29.8129 70.4299 29.5585 70.9039 29.455 71.4203C29.3515 71.9367 29.4036 72.4722 29.6047 72.959C29.8058 73.4458 30.1468 73.8619 30.5845 74.1547C31.0223 74.4475 31.5371 74.6038 32.0638 74.6038C32.5904 74.6038 33.1053 74.4475 33.543 74.1547C33.9808 73.8619 34.3218 73.4458 34.5229 72.959C34.724 72.4722 34.7761 71.9367 34.6726 71.4203C34.5691 70.9039 34.3147 70.4299 33.9416 70.0582C33.6957 69.8114 33.4035 69.6157 33.0818 69.4823C32.76 69.3489 32.415 69.2805 32.0667 69.2811Z" fill="white"/>
<path d="M69.2479 33.8141L62.519 40.543L63.6037 41.6277L70.3326 34.8988L69.2479 33.8141Z" fill="white"/>
<path d="M71.9331 36.2517C71.1032 36.252 70.2919 36.0061 69.6018 35.5452C68.9117 35.0843 68.3738 34.4291 68.0562 33.6624C67.7386 32.8958 67.6555 32.0521 67.8175 31.2382C67.9795 30.4243 68.3793 29.6767 68.9662 29.0901C69.7653 28.3277 70.8273 27.9023 71.9317 27.9023C73.0361 27.9023 74.0981 28.3277 74.8971 29.0901C75.2872 29.4794 75.5967 29.9419 75.8079 30.451C76.019 30.9601 76.1277 31.5058 76.1277 32.057C76.1277 32.6081 76.019 33.1539 75.8079 33.663C75.5967 34.1721 75.2872 34.6345 74.8971 35.0239C74.5086 35.4141 74.0467 35.7236 73.538 35.9343C73.0292 36.1451 72.4838 36.2529 71.9331 36.2517ZM71.9331 29.3963C71.4071 29.3966 70.8929 29.5528 70.4557 29.8452C70.0184 30.1375 69.6776 30.553 69.4763 31.039C69.275 31.525 69.2224 32.0597 69.3249 32.5757C69.4275 33.0916 69.6806 33.5656 70.0524 33.9377C70.5586 34.4201 71.231 34.6893 71.9302 34.6893C72.6295 34.6893 73.3019 34.4201 73.808 33.9377C74.1795 33.5659 74.4325 33.0925 74.5353 32.5771C74.638 32.0617 74.5858 31.5274 74.3852 31.0416C74.1847 30.5559 73.8448 30.1404 73.4084 29.8476C72.972 29.5548 72.4586 29.3977 71.9331 29.3963Z" fill="white"/>
</g>
<defs>
<filter id="filter0_d" x="-4" y="-2" width="112" height="112" filterUnits="userSpaceOnUse" color-interpolation-filters="sRGB">
<feFlood flood-opacity="0" result="BackgroundImageFix"/>
<feColorMatrix in="SourceAlpha" type="matrix" values="0 0 0 0 0 0 0 0 0 0 0 0 0 0 0 0 0 0 127 0"/>
<feOffset dy="2"/>
<feGaussianBlur stdDeviation="2"/>
<feColorMatrix type="matrix" values="0 0 0 0 0.0980392 0 0 0 0 0.223529 0 0 0 0 0.34902 0 0 0 0.22 0"/>
<feBlend mode="normal" in2="BackgroundImageFix" result="effect1_dropShadow"/>
<feBlend mode="normal" in="SourceGraphic" in2="effect1_dropShadow" result="shape"/>
</filter>
<linearGradient id="paint0_linear" x1="38.0609" y1="165.482" x2="65.5564" y2="165.482" gradientUnits="userSpaceOnUse">
<stop stop-color="#FDDCCE"/>
<stop offset="1" stop-color="#D7EEF8"/>
</linearGradient>
</defs>
</svg>
